<?xml version="1.0" encoding="UTF-8" standalone="no"?>
<svg
   xmlns:dc="http://purl.org/dc/elements/1.1/"
   xmlns:cc="http://creativecommons.org/ns#"
   xmlns:rdf="http://www.w3.org/1999/02/22-rdf-syntax-ns#"
   xmlns:svg="http://www.w3.org/2000/svg"
   xmlns="http://www.w3.org/2000/svg"
   xmlns:sodipodi="http://sodipodi.sourceforge.net/DTD/sodipodi-0.dtd"
   xmlns:inkscape="http://www.inkscape.org/namespaces/inkscape"
   width="350"
   height="290"
   version="1.1"
   id="svg428"
   sodipodi:docname="happy-traveler_zmenseny.svg"
   inkscape:version="0.92.4 (5da689c313, 2019-01-14)">
  <metadata
     id="metadata432">
    <rdf:RDF>
      <cc:Work
         rdf:about="">
        <dc:format>image/svg+xml</dc:format>
        <dc:type
           rdf:resource="http://purl.org/dc/dcmitype/StillImage" />
        <dc:title></dc:title>
      </cc:Work>
    </rdf:RDF>
  </metadata>
  <sodipodi:namedview
     pagecolor="#ffffff"
     bordercolor="#666666"
     borderopacity="1"
     objecttolerance="10"
     gridtolerance="10"
     guidetolerance="10"
     inkscape:pageopacity="0"
     inkscape:pageshadow="2"
     inkscape:window-width="1440"
     inkscape:window-height="847"
     id="namedview430"
     showgrid="false"
     inkscape:snap-global="false"
     inkscape:zoom="1.4206031"
     inkscape:cx="247.98368"
     inkscape:cy="143.88399"
     inkscape:window-x="-8"
     inkscape:window-y="-8"
     inkscape:window-maximized="1"
     inkscape:current-layer="g388" />
  <defs
     id="defs224">
    <style
       id="style222">
      .a{fill:#f5f5f5}.b{fill:#ebebeb}.d{fill:#e0e0e0}.e{fill:#407bff}.f,.g,.j,.m,.q{fill:#fff}.f{opacity:.8}.f,.g,.j,.k,.m,.n{isolation:isolate}.g,.k,.n,.p{opacity:.2}.h{fill:#263238}.j{opacity:.6}.m{opacity:.1}.o{fill:#e4897b}
    </style>
  </defs>
  <g
     id="g4152"
     transform="matrix(0.91146064,0,0,1.0005,0,-42.167015)">
    <g
       transform="matrix(1,0,0,0.90127023,0,31.767586)"
       id="g254">
      <ellipse
         style="fill:#f5f5f5;stroke-width:1.08227348"
         id="circle226"
         cy="102.75923"
         cx="268.51965"
         class="a"
         rx="44.11039"
         ry="40.320606" />
      <path
         style="fill:#ebebeb;stroke-width:0.91207886"
         inkscape:connector-curvature="0"
         id="path228"
         d="m 326.54843,83.726122 a 5.8649972,5.7049195 0 0 0 -7.55551,-5.468337 12.426359,12.087198 0 0 0 -14.58759,-13.636216 10.863469,10.566964 0 0 0 -20.14555,5.342403 c -0.0609,0 -0.11928,-0.008 -0.18495,-0.008 a 10.01359,9.7402818 0 1 0 0,19.479664 h 36.77507 l -0.007,-0.008 a 5.8659221,5.705819 0 0 0 5.70501,-5.701322 z m -92.98546,31.421138 a 5.8668468,5.7067184 0 0 0 -7.55457,-5.46834 12.42266,12.083598 0 0 0 -14.5876,-13.635325 10.863469,10.566964 0 0 0 -20.14553,5.341505 c -0.061,0 -0.12024,-0.008 -0.18497,-0.008 a 10.01359,9.7402818 0 1 0 0,19.47966 h 36.77785 l -0.008,-0.008 a 5.8649972,5.7049195 0 0 0 5.70223,-5.70131 z M 71.38036,125.9517 a 5.8649972,5.7049195 0 0 0 -7.555506,-5.46834 12.426359,12.087198 0 0 0 -14.589435,-13.63532 10.863469,10.566964 0 0 0 -20.145555,5.34242 c -0.06104,0 -0.119297,-0.008 -0.184958,-0.008 a 10.01359,9.7402818 0 1 0 0,19.47967 h 36.773219 l -0.0074,-0.008 a 5.8659221,5.705819 0 0 0 5.709634,-5.70221 z m 251.77505,27.24364 a 3.5456323,3.4488586 0 0 0 -4.56662,-3.30493 7.5092681,7.3043118 0 0 0 -8.81691,-8.24163 6.5659856,6.3867751 0 0 0 -12.17574,3.22846 c -0.0371,0 -0.0731,-0.005 -0.11004,-0.005 a 6.0518086,5.8866318 0 1 0 0,11.77326 h 22.22632 v -0.005 a 3.5447074,3.447959 0 0 0 3.44299,-3.44437 z M 108.32558,42.229176 a 3.5428579,3.4461599 0 0 0 -4.56566,-3.304931 7.5055688,7.3007136 0 0 0 -8.816918,-8.245238 6.5659856,6.3867751 0 0 0 -12.176668,3.228472 c -0.03607,0 -0.07213,-0.0063 -0.109125,-0.0063 a 6.052729,5.887527 0 0 0 0,11.774155 h 22.226321 l -0.006,-0.0055 a 3.5447074,3.447959 0 0 0 3.4476,-3.440763 z M 48.743432,171.1062 72.233014,274.885 76.501829,272.93748 51.834993,170.5197 Z"
         class="b" />
      <path
         inkscape:connector-curvature="0"
         id="path230"
         style="fill:#e6e6e6"
         d="m 320.031,274.88228 c 0,0 -15.7,-108.4 19.646,-220.523003 l -5.546,-4.277 c 0,0 -41.423,84.790003 -35.392,227.843003 z" />
      <path
         style="fill:#e0e0e0"
         inkscape:connector-curvature="0"
         id="path232"
         d="m 349.22503,35.46945 c 12.959,-8.492 32.144,5.024 34.774,26.141 a 40.037,40.037 0 0 0 -5.949,-2.827 c -1,-5.312 -1.972,-10.015 -1.972,-10.015 l 0.689,9.536 a 49.266,49.266 0 0 0 -3.731,-1.173 l -0.9,-5.133 -0.423,4.792 a 46.055,46.055 0 0 0 -5.572,-0.987 l -2.416,-14.977 -1.256,14.715 a 39.423,39.423 0 0 0 -5.751,0.255 l -1.482,-10.191 -0.013,10.392 a 37.175,37.175 0 0 0 -4.859,1.121 l -1.775,-15.2 c 0,0 0.053,8.546 -0.044,15.793 a 39.884,39.884 0 0 0 -12.515,7.363 l -0.135,-1.871 c 0,0 1.503,-19.983 13.33,-27.734 z"
         class="d" />
      <path
         style="fill:#e0e0e0"
         inkscape:connector-curvature="0"
         id="path234"
         d="m 331.31903,28.68245 c -10.288,-11.584999 -32.339,-3.557 -40.4,16.138 a 40.1,40.1 0 0 1 6.481,-1.172 707.962,707.962 0 0 1 4.523,-9.151 l -3.159,9.025 c 1.206,-0.1 2.513,-0.157 3.908,-0.158 l 2.207,-4.72 -0.844,4.735 a 46.391,46.391 0 0 1 5.636,0.506 l 6.25,-13.822 -2.637,14.53 a 39.685,39.685 0 0 1 5.485,1.75 l 4.1,-9.448 -2.705,10.034 a 37.19,37.19 0 0 1 4.4,2.352 l 5.687,-14.206 c 0,0 -2.286,8.235 -4.087,15.255 a 39.891,39.891 0 0 1 10.154,10.379 l 0.62,-1.771 c 0,0 3.77,-19.681 -5.619,-30.256 z"
         class="d" />
      <path
         style="fill:#e0e0e0"
         inkscape:connector-curvature="0"
         id="path236"
         d="m 321.40003,56.15545 c 10.314,-10.07 18.065,-1.306 18.065,-1.306 a 22.513,22.513 0 0 0 -10.341,6.647 l -1.4,-1.817 0.224,3.1 a 44.879,44.879 0 0 0 -2.072,2.577 l -2.364,-5.375 1.008,7.277 a 64.72,64.72 0 0 0 -2.649,4.246 l -1.041,-5.334 0.079,7.068 a 85.98,85.98 0 0 0 -2.313,4.631 l -1.124,-9.78 -0.147,12.648 c -1.651,3.9 -2.508,6.643 -2.508,6.643 0,0 -3.731,-21.156 6.583,-31.225 z m 27.854,23.784 -2.131,1.227 a 122.771,122.771 0 0 0 -1.081,-5.105 l 1.452,-2.652 -1.822,1.126 q -0.218,-0.869 -0.454,-1.734 l 1.856,-5.2 -2.779,2.07 c -1.5,-4.683 -3.417,-8.8 -5.811,-10.772 0,0 23.661,7.559 10.29,33.063 0,0 -0.428,-4.038 -1.38,-9.338 z"
         class="d" />
      <path
         style="fill:#e0e0e0"
         inkscape:connector-curvature="0"
         id="path238"
         d="m 325.98503,59.07745 -3.784,-7.125 1.556,7.422 q -0.563,0.093 -1.143,0.207 l -4.9,-6.105 1.208,7.03 a 43.823,43.823 0 0 0 -4.925,1.815 55.53,55.53 0 0 0 -5.113,2.58 l -2.39,-6.236 1.112,6.979 c -1.624,0.969 -3.2,2 -4.72,3.063 l -1.189,-5.5 0.112,6.264 a 100.575,100.575 0 0 0 -5.23,4.055 l 0.147,-9.959 -1.448,11.055 a 117.434,117.434 0 0 0 -4.408,3.963 l -0.184,-6.908 -1.746,8.773 c -1.824,1.807 -2.866,2.965 -2.866,2.965 0.952,-24.191 10.318,-33.8 25.835,-36.392 15.517,-2.592 26.692,13.521 26.692,13.521 0,0 -4.764,-2.254 -12.616,-1.467 z m 45.244,29.563 -1.419,7.211 a 109.62,109.62 0 0 0 -2.781,-6.647 l 1.27,-10.553 -2.325,8.319 a 81.394,81.394 0 0 0 -6.3,-10.878 l 2.208,-7.316 -3.582,5.43 a 49.245,49.245 0 0 0 -2.229,-2.736 l 1.257,-4.606 -1.937,3.849 q -0.795,-0.861 -1.625,-1.661 l 1.523,-6.144 -2.42,5.312 a 27,27 0 0 0 -4.968,-3.587 l 2.467,-7.513 -3.867,6.809 a 17.076,17.076 0 0 0 -7.771,-1.624 c 0,0 4.661,-7.493 13.307,-10.081 8.646,-2.588 27.2,13.029 19.134,47.461 0,0 -0.247,-0.784 -0.726,-2.122 z m -14.219,-66.898 1.472,4.37 a 9.533,9.533 0 0 0 -1.614,0.23 l -1.776,-5.689 1.185,5.841 a 12.6,12.6 0 0 0 -3.185,1.454 l -2.444,-7.685 1.436,8.375 c -0.389,0.288 -0.785,0.606 -1.187,0.96 l -2.758,-7.213 2.082,7.836 a 30.4,30.4 0 0 0 -5.166,6.882 l -0.764,-10.574 -1.216,14.433 a 85.977,85.977 0 0 0 -4.877,13.981 c 0,0 -1.5,-38.416999 7.756,-42.765999 9.256,-4.3489993 14.763,14.146999 14.763,14.146999 a 5.409,5.409 0 0 0 -1.266,-0.206 z"
         class="d" />
      <path
         style="fill:#e0e0e0"
         inkscape:connector-curvature="0"
         id="path240"
         d="m 343.78603,64.51545 -0.826,7.29 -2.778,-7.029 -3.774,5.5 -1.473,-5.123 -4.338,3.639 c 0,0 0.53,-9.295 3.3,-13.544 2.77,-4.249 11.063,-1.262 9.889,9.267 z"
         class="d" />
      <g
         id="g248"
         transform="matrix(1.1068581,0,0,1.07515,-33.864287,-21.152395)">
        <path
           style="fill:#ebebeb"
           inkscape:connector-curvature="0"
           id="path242"
           d="m 244.08,170.605 v -50.814 c 0,0 -10.309,10.944 -17.146,9.46 -6.837,-1.484 -15.743,3.69 -15.743,3.69 0,0 8.944,-1.3 12.264,2.326 3.32,3.626 18.139,4.018 18.139,4.018 v 33.184 z"
           class="b" />
        <path
           style="fill:#e0e0e0"
           inkscape:connector-curvature="0"
           id="path244"
           d="m 289.555,155.028 h -2.341 v 3.2 h -7.732 v -3.2 h -7.591 v 3.2 h -7.732 v -3.2 h -7.593 v 3.2 h -7.73 v -3.2 h -7.591 v 3.2 h -7.732 v -3.2 h -7.591 v 3.2 h -7.732 v -3.2 h -7.591 v 3.2 h -7.733 v -3.2 h -2.6 l -7.533,60.215 104.614,-0.435 z"
           class="d" />
        <path
           style="fill:#ebebeb"
           inkscape:connector-curvature="0"
           id="path246"
           d="m 306.202,198.737 h -3.216 v 4.391 h -10.625 v -4.391 h -10.43 v 4.391 h -10.622 v -4.391 H 260.88 v 4.391 h -10.624 v -4.391 h -10.43 v 4.391 h -10.624 v -4.391 h -10.429 v 4.391 h -10.624 v -4.391 H 197.72 v 4.391 h -10.624 v -4.391 h -3.571 l -10.35,82.732 143.734,-0.6 z"
           class="b" />
      </g>
      <path
         style="fill:#f5f5f5;stroke-width:0.9878428"
         inkscape:connector-curvature="0"
         id="path250"
         d="m 350.95616,271.728 c -2.16733,-2.505 -4.21365,-5.065 -6.48246,-7.477 a 2.5108192,2.573 0 0 1 -0.32789,-0.4 19.014113,19.485 0 0 0 -2.33419,-1.318 c -0.14247,-0.051 -0.6177,-0.246 -1.1105,-0.431 a 92.44655,94.736 0 0 1 -2.71672,-1.08 c -5.69691,-2.346 -10.81223,-5.063 -15.10981,-9.69 -2.3537,-2.535 -4.23511,-5.493 -6.67567,-7.942 -0.0585,0.081 -0.53768,-0.176 -0.76505,-0.373 -0.72602,-0.084 -1.70966,-0.234 -1.83945,-0.235 a 48.128102,49.32 0 0 0 -2.95482,0.062 c -1.40617,0.064 -2.80747,0.182 -4.20877,0.308 -5.46466,8.182 -12.36967,19.348 -15.41816,20.826 -4.71719,2.286 -48.22472,14.04 -51.42643,13.346 -3.2017,-0.694 -20.00458,0.694 -24.2192,0.534 -4.21463,-0.16 -11.85052,-2.075 -22.90183,-7.274 -11.05132,-5.199 -17.10247,-5.234 -30.41478,-9.574 -13.31232,-4.34 -22.24315,-5.993 -30.03518,0.685 -7.79202,6.678 -29.194,-7.421 -35.863822,-9.43 -6.669822,-2.009 -19.438601,-13.575 -28.145962,-8.179 -8.707361,5.396 -15.9539,7.964 -26.832491,17.609 C 30.294386,271.34 8.707,289.97 8.707,289.97 h 367.52128 l -4.21852,-7.552 a 30.257665,31.007 0 0 1 -21.0536,-10.69 z"
         class="a" />
      <path
         style="fill:#e0e0e0"
         inkscape:connector-curvature="0"
         id="path252"
         d="m 0,179.528 c 0,0 10.946,-19.663 40.611,-36.688 0,0 24.138,-2.058 51.392,9.823 0,0 5.525,9.179 -0.753,12.8 -6.278,3.621 -11.493,-3.657 -11.493,-3.657 0,0 -1.158,11.085 -9.351,11.406 -8.193,0.321 -10.6,-7.749 -10.6,-7.749 0,0 -0.8,10.173 -10.583,12.744 -8.49,2.233 -13.764,-4.995 -13.764,-4.995 0,0 -1.689,8.361 -9.3,10.772 -6.114,1.939 -10.3,-3.322 -10.3,-3.322 0,0 -1.755,9.074 -8.248,9.074 C 2.041,189.732 0,179.528 0,179.528 Z"
         class="d" />
    </g>
  </g>
  <ellipse
     class="a"
     cx="172.80333"
     cy="279.37369"
     rx="160.16582"
     ry="10.626311"
     id="ellipse256"
     style="fill:#f5f5f5;stroke-width:0.93799716" />
  <path
     class="e"
     d="m 281.46876,237.68887 c 0,0 4.25208,-5.38597 8.11666,-6.89182 3.86459,-1.5059 4.50209,-7.22642 6.59896,-7.54382 2.09688,-0.31741 4.41667,4.9685 8.08854,6.50682 3.67188,1.53833 9.2323,7.89637 9.2323,7.89637 z"
     id="path258"
     inkscape:connector-curvature="0"
     style="fill:#407bff;stroke-width:0.96917117" />
  <path
     class="f"
     d="m 281.46876,237.68887 c 0,0 4.25208,-5.38597 8.11666,-6.89182 3.86459,-1.5059 4.50209,-7.22642 6.59896,-7.54382 2.09688,-0.31741 4.41667,4.9685 8.08854,6.50682 3.67188,1.53833 9.2323,7.89637 9.2323,7.89637 z"
     id="path260"
     inkscape:connector-curvature="0"
     style="opacity:0.8;isolation:isolate;fill:#ffffff;stroke-width:0.96917117" />
  <path
     class="e"
     d="m 312.37501,276.12205 h -30.91667 l -3.90833,-43.07852 h 38.73229 z"
     id="path262"
     inkscape:connector-curvature="0"
     style="fill:#407bff;stroke-width:1.02087581" />
  <path
     class="e"
     d="m 275.68126,235.6483 h 42.47291 v 4.08118 h -42.47291 z"
     id="path264"
     inkscape:connector-curvature="0"
     style="fill:#407bff;stroke-width:0.96917117" />
  <path
     class="g"
     d="m 275.68126,235.6483 h 42.47291 v 4.08118 h -42.47291 z"
     id="path266"
     inkscape:connector-curvature="0"
     style="opacity:0.2;isolation:isolate;fill:#ffffff;stroke-width:0.96917117" />
  <path
     class="h"
     d="m 295.08647,234 c 2.81875,4.24112 14.86041,21.74787 22.32812,23.02251 l 0.92292,-2.12106 c 0,0 -6.69063,0.76838 -21.45834,-21.97198 A 1.0614584,1.0195095 0 0 0 295.48126,232.56529 1.0510417,1.0095045 0 0 0 295.08647,234 Z"
     id="path268"
     inkscape:connector-curvature="0"
     style="fill:#263238;stroke-width:1.02087581" />
  <g
     id="g274"
     transform="matrix(1.0416667,0,0,1.0005,-52.083335,-42.167015)">
    <path
       class="e"
       d="m 291.062,262.448 a 2.392,2.392 0 0 1 3.015,1.624 l 5.071,17.719 6.591,-2.638 c 0,0 3.968,14.774 -3.525,17.106 -7.328,2.281 -12.987,-11.355 -12.987,-11.355 l 6.7,-1.853 -6.395,-17.5 a 2.393,2.393 0 0 1 1.53,-3.103 z"
       id="path270"
       inkscape:connector-curvature="0"
       style="fill:#407bff" />
    <path
       d="M 363.941,388.328 C 356.616,390.607 350.96,376.97 350.96,376.97 l 6.7,-1.848 c 0,0 1.154,1.97 2.448,1.482 1.294,-0.488 0.769,-2.748 0.769,-2.748 l 6.594,-2.636 c 0,0 3.964,14.772 -3.53,17.108 z"
       transform="translate(-61.728,-92.065)"
       style="opacity:0.4;isolation:isolate;fill:#ffffff"
       id="path272"
       inkscape:connector-curvature="0" />
  </g>
  <g
     id="g280"
     transform="matrix(1.0416667,0,0,1.0005,-52.083335,-42.167015)">
    <path
       class="e"
       d="m 358.364,321.766 c -3.688,-1.829 -7.453,-3.557 -8.659,-3.636 -2.6,-0.172 -4.082,-1.326 -5.937,-3.532 -1.855,-2.206 -2.6,-4.754 -5.936,-8.3 -3.336,-3.546 0.371,-4.966 -6.679,-5.88 -7.05,-0.914 -4.329,-0.333 -8.658,-3.454 -4.329,-3.121 -3.457,-3.12 -8.531,-5.346 -5.074,-2.226 -2.107,-3.077 -8.044,-3.58 -4.1,-0.346 -10.586,1.814 -13.948,4.214 -1.492,1.065 -2.257,2.832 -3.727,3.767 -1.656,1.053 -4.238,-0.9 -3.967,2.63 a 9.046,9.046 0 0 1 0.122,2.765 c -0.478,2.005 -8.742,2 -10.839,2.63 a 2,2 0 0 0 -1.261,0.766 c -0.477,0.854 0.241,2.365 -0.687,2.678 -0.29,0.1 -0.612,-0.014 -0.914,0.043 -1.119,0.215 -0.824,2.221 -1.867,2.683 -1,0.441 -2.259,-0.476 -3.423,-0.039 -0.9,0.336 -1.192,1.542 -1.971,2.017 -1.356,0.828 -2.77,1.439 -4.108,2.316 -2.329,1.526 -4.344,3.394 -6.841,4.738 l -6.679,1.825 -1.995,0.7 z"
       id="path276"
       inkscape:connector-curvature="0"
       style="fill:#407bff" />
    <path
       class="f"
       d="m 358.364,321.766 c -3.688,-1.829 -7.453,-3.557 -8.659,-3.636 -2.6,-0.172 -4.082,-1.326 -5.937,-3.532 -1.855,-2.206 -2.6,-4.754 -5.936,-8.3 -3.336,-3.546 0.371,-4.966 -6.679,-5.88 -7.05,-0.914 -4.329,-0.333 -8.658,-3.454 -4.329,-3.121 -3.457,-3.12 -8.531,-5.346 -5.074,-2.226 -2.107,-3.077 -8.044,-3.58 -4.1,-0.346 -10.586,1.814 -13.948,4.214 -1.492,1.065 -2.257,2.832 -3.727,3.767 -1.656,1.053 -4.238,-0.9 -3.967,2.63 a 9.046,9.046 0 0 1 0.122,2.765 c -0.478,2.005 -8.742,2 -10.839,2.63 a 2,2 0 0 0 -1.261,0.766 c -0.477,0.854 0.241,2.365 -0.687,2.678 -0.29,0.1 -0.612,-0.014 -0.914,0.043 -1.119,0.215 -0.824,2.221 -1.867,2.683 -1,0.441 -2.259,-0.476 -3.423,-0.039 -0.9,0.336 -1.192,1.542 -1.971,2.017 -1.356,0.828 -2.77,1.439 -4.108,2.316 -2.329,1.526 -4.344,3.394 -6.841,4.738 l -6.679,1.825 -1.995,0.7 z"
       id="path278"
       inkscape:connector-curvature="0"
       style="opacity:0.8;isolation:isolate;fill:#ffffff" />
  </g>
  <g
     id="g292"
     transform="matrix(1.0416667,0,0,1.0005,-52.083335,-42.167015)">
    <path
       class="e"
       d="m 279.655,304.696 a 1.522,1.522 0 0 1 -0.009,0.206 v 0.009 a 16.9,16.9 0 0 1 -2.664,8.957 c -0.141,0.216 -0.281,0.431 -0.441,0.647 a 17.083,17.083 0 0 1 -3.527,3.686 11.146,11.146 0 0 1 -0.957,0.685 h -0.009 a 1.64,1.64 0 0 1 -0.234,0.15 c -0.1,0.075 -0.206,0.131 -0.31,0.2 a 5.359,5.359 0 0 1 -0.5,0.3 c -0.263,0.15 -0.535,0.3 -0.807,0.431 h -0.009 a 17.017,17.017 0 0 1 -19.95,-3.489 16.585,16.585 0 0 1 -2.861,-4 16.963,16.963 0 0 1 -1.876,-7.775 v -0.056 c 0,-0.478 0.019,-0.957 0.066,-1.426 a 16.787,16.787 0 0 1 1.81,-6.3 15.379,15.379 0 0 1 0.825,-1.435 17.385,17.385 0 0 1 3.6,-4.033 14.712,14.712 0 0 1 1.4,-1.013 6.241,6.241 0 0 1 0.525,-0.338 16.7,16.7 0 0 1 4.314,-1.867 c 0.131,-0.037 0.263,-0.075 0.394,-0.1 a 17.188,17.188 0 0 1 4.146,-0.507 q 0.661,0 1.294,0.056 c 0.113,0 0.216,0.009 0.328,0.019 h 0.009 a 16.807,16.807 0 0 1 5.478,1.482 c 0.066,0.028 0.141,0.066 0.216,0.1 a 17.032,17.032 0 0 1 9.6,13.159 v 0.028 a 15.934,15.934 0 0 1 0.149,2.224 z"
       id="path282"
       inkscape:connector-curvature="0"
       style="fill:#407bff" />
    <path
       class="j"
       d="m 279.656,304.696 a 17.034,17.034 0 0 1 -9.454,15.27 c -0.009,0.009 -0.009,0 -0.009,0 a 3.581,3.581 0 0 1 -0.938,-1.154 c 3.151,-9.192 0,-14.116 0,-14.116 l 0.009,-0.094 0.225,-1.473 0.047,-0.272 c 0.488,-2.729 1.716,-7.841 4.38,-10.936 a 17.045,17.045 0 0 1 5.74,12.775 z m -30.165,-2.954 c 0,0 -2.992,2.992 -2.11,10.73 a 17.074,17.074 0 0 1 4.427,-21.028 20.559,20.559 0 0 0 -2.317,10.298 z"
       id="path284"
       inkscape:connector-curvature="0"
       style="opacity:0.6;isolation:isolate;fill:#ffffff" />
    <path
       class="g"
       d="m 273.915,291.921 c -3.752,4.352 -4.662,12.775 -4.662,12.775 -10.3,2.523 -19.762,-2.954 -19.762,-2.954 a 20.659,20.659 0 0 1 2.317,-10.3 17.075,17.075 0 0 1 22.107,0.478 z m -3.723,28.044 a 17.017,17.017 0 0 1 -19.95,-3.489 c 3.2,1.9 9.736,4.568 19.012,2.336 a 3.58,3.58 0 0 0 0.938,1.153 z"
       id="path286"
       inkscape:connector-curvature="0"
       style="opacity:0.2;isolation:isolate;fill:#ffffff" />
    <g
       class="k"
       id="g290"
       style="opacity:0.2;isolation:isolate">
      <path
         d="m 269.91,289.272 a 20.065,20.065 0 0 0 -1.229,1.951 30.111,30.111 0 0 0 -1.791,4.014 c -0.525,1.379 -0.929,2.8 -1.313,4.211 a 66.894,66.894 0 0 0 -0.966,4.324 30.273,30.273 0 0 1 0.619,-4.4 36.108,36.108 0 0 1 1.219,-4.3 26.451,26.451 0 0 1 1.913,-4.033 20.492,20.492 0 0 1 1.332,-1.876 c 0.066,0.038 0.141,0.076 0.216,0.109 z m -5.703,-1.581 c -0.234,0.422 -0.45,0.853 -0.657,1.285 a 29.321,29.321 0 0 0 -1.7,4.511 c -0.5,1.538 -0.872,3.114 -1.229,4.69 -0.357,1.576 -0.657,3.17 -0.929,4.765 a 40.082,40.082 0 0 1 0.582,-4.84 41.054,41.054 0 0 1 1.126,-4.746 26.5,26.5 0 0 1 1.829,-4.549 c 0.206,-0.385 0.422,-0.769 0.647,-1.135 0.116,-0.001 0.219,0.009 0.331,0.019 z m -5.768,0.431 c -0.094,0.253 -0.2,0.507 -0.291,0.76 a 33.318,33.318 0 0 0 -1.266,4.268 c -0.366,1.444 -0.647,2.908 -0.919,4.38 -0.272,1.472 -0.5,2.945 -0.713,4.427 a 37.841,37.841 0 0 1 0.366,-4.483 44.286,44.286 0 0 1 0.816,-4.427 28.044,28.044 0 0 1 1.379,-4.305 c 0.075,-0.169 0.15,-0.347 0.234,-0.516 0.131,-0.038 0.263,-0.076 0.394,-0.104 z m -4.709,1.97 c -0.319,1.051 -0.619,2.1 -0.835,3.17 -0.272,1.191 -0.469,2.4 -0.657,3.611 -0.188,1.211 -0.319,2.429 -0.431,3.658 a 25.594,25.594 0 0 1 0.075,-3.7 34.591,34.591 0 0 1 0.553,-3.667 27.572,27.572 0 0 1 0.769,-2.739 c 0.17,-0.114 0.346,-0.23 0.526,-0.333 z m 20.325,20.297 a 16.711,16.711 0 0 1 -0.685,5.224 17.66,17.66 0 0 1 -0.91,2.467 c -0.122,0.272 -0.263,0.544 -0.4,0.807 h -0.009 a 1.642,1.642 0 0 1 -0.234,0.15 19.731,19.731 0 0 0 1.21,-3.517 17.493,17.493 0 0 0 0.563,-5.121 18.727,18.727 0 0 0 -0.788,-5.093 20.878,20.878 0 0 0 -2.063,-4.774 16.405,16.405 0 0 1 2.4,4.662 17.492,17.492 0 0 1 0.916,5.195 z m 3.368,-0.479 -0.047,1.416 -0.2,1.407 a 9.264,9.264 0 0 1 -0.2,1.135 c -0.141,0.216 -0.281,0.431 -0.441,0.647 a 12.141,12.141 0 0 0 0.281,-1.829 l 0.141,-1.388 0.028,-1.388 a 9.944,9.944 0 0 0 -0.037,-1.4 c -0.047,-0.46 -0.047,-0.919 -0.131,-1.379 a 20.508,20.508 0 0 0 -1.373,-5.372 19.059,19.059 0 0 0 -2.758,-4.84 15.947,15.947 0 0 1 3.086,4.7 19.7,19.7 0 0 1 1.519,5.459 c 0.075,0.469 0.066,0.938 0.1,1.416 a 10.2,10.2 0 0 1 0.032,1.416 z m 2.232,-5.214 a 1.522,1.522 0 0 1 -0.009,0.206 c -0.019,-0.1 -0.038,-0.216 -0.056,-0.319 a 24.906,24.906 0 0 0 -1.885,-5.637 20.336,20.336 0 0 0 -3.245,-5 17.436,17.436 0 0 1 3.564,4.84 23.229,23.229 0 0 1 1.482,3.649 v 0.028 a 15.934,15.934 0 0 1 0.149,2.233 z m -30.999,-5.656 a 13.983,13.983 0 0 0 -1.923,2.776 18.367,18.367 0 0 0 -1.229,2.823 c 0,-0.478 0.019,-0.957 0.066,-1.426 a 14.165,14.165 0 0 1 0.854,-1.576 9.9,9.9 0 0 1 2.232,-2.597 z m 0.807,-4.54 c -0.713,0.807 -1.407,1.6 -2.082,2.411 a 15.372,15.372 0 0 1 0.825,-1.435 14.047,14.047 0 0 1 1.257,-0.976 z m -0.001,10.86 q 2.337,0.9 4.732,1.592 a 42.5,42.5 0 0 0 4.838,1.153 22.023,22.023 0 0 0 9.85,-0.122 14.864,14.864 0 0 1 -4.914,0.984 25.853,25.853 0 0 1 -5.019,-0.4 35.916,35.916 0 0 1 -4.863,-1.272 32.738,32.738 0 0 1 -4.624,-1.935 z m 0,4.078 a 40.417,40.417 0 0 0 4.807,1.577 36.387,36.387 0 0 0 4.949,0.95 28.662,28.662 0 0 0 5.025,0.237 l 1.26,-0.059 1.253,-0.151 c 0.845,-0.053 1.655,-0.3 2.5,-0.42 a 20.866,20.866 0 0 1 -4.99,0.99 25.791,25.791 0 0 1 -5.1,-0.133 31.706,31.706 0 0 1 -4.989,-1.069 26.086,26.086 0 0 1 -4.715,-1.922 z m 0.403,3.525 a 30.006,30.006 0 0 0 4.573,1.708 28.048,28.048 0 0 0 4.764,0.959 c 0.8,0.128 1.612,0.15 2.421,0.21 0.809,-0.009 1.621,0.022 2.429,-0.046 a 29.116,29.116 0 0 0 4.829,-0.7 20.434,20.434 0 0 1 -4.8,1.058 22.03,22.03 0 0 1 -4.934,-0.058 25.183,25.183 0 0 1 -4.813,-1.081 20.972,20.972 0 0 1 -4.469,-2.05 z m 0.711,2.658 a 30.765,30.765 0 0 0 4.308,1.607 27.234,27.234 0 0 0 4.479,0.923 21.684,21.684 0 0 0 4.56,0.146 l 1.142,-0.089 1.132,-0.184 c 0.765,-0.081 1.49,-0.342 2.251,-0.486 a 17.12,17.12 0 0 1 -4.493,1.118 19.836,19.836 0 0 1 -4.651,-0.04 24.123,24.123 0 0 1 -4.529,-1.046 20.489,20.489 0 0 1 -4.199,-1.949 z"
         id="path288"
         inkscape:connector-curvature="0" />
    </g>
  </g>
  <g
     id="g310"
     transform="matrix(1.0416667,0,0,1.0005,0,-42.167015)">
    <path
       class="h"
       d="m 66.232,277.856 c 0,0 3.34,-5.009 9.276,-5.38 5.936,-0.371 10.947,7.2 10.947,7.2 h -1.884 c 0,0 -4.795,-5.159 -8.228,-5.159 -3.433,0 -6.771,4.267 -6.771,4.267 z m -50.377,39.603 c 2.059,-3.425 25.063,-1.2 30.259,-3.242 l 2.783,4.826 c 0,0 -3.965,2.2 -10.554,1.424 -6.589,-0.776 -16.533,-0.987 -19.131,1.3 z"
       id="path294"
       inkscape:connector-curvature="0"
       style="fill:#263238" />
    <path
       d="m 60.08,411.844 c 2.059,-3.425 25.063,-1.2 30.259,-3.242 l 2.783,4.826 c 0,0 -3.965,2.2 -10.554,1.424 -6.589,-0.776 -16.533,-0.987 -19.131,1.3 z"
       transform="translate(-44.225,-94.385)"
       style="opacity:0.3;isolation:isolate"
       id="path296"
       inkscape:connector-curvature="0" />
    <path
       class="h"
       d="m 112.762,307.021 a 37.84,37.84 0 0 1 -0.628,2.392 c -1.848,6.387 -4.765,11.555 -6.866,12.353 H 45.625 a 5.373,5.373 0 0 1 -4.247,-2.081 c -0.009,-0.019 -0.028,-0.037 -0.047,-0.066 a 4.713,4.713 0 0 1 -0.553,-0.91 c -4.118,-8.6 -8.273,-25.8 -2.429,-33.644 a 13.033,13.033 0 0 1 2.1,-2.214 2.049,2.049 0 0 1 0.169,-0.131 17.57,17.57 0 0 1 4.071,-2.486 c 0.009,0 0.009,-0.009 0.019,-0.009 0.01,0 0.019,-0.009 0.028,-0.009 4.108,-1.857 9.154,-2.711 14.107,-3.076 a 72.939,72.939 0 0 1 4.258,-0.206 c 3.658,-0.1 7.072,-0.009 9.792,0.066 9.586,0.244 17.127,3.1 22.267,2.6 a 15.425,15.425 0 0 1 5.665,0.45 15.982,15.982 0 0 1 1.557,0.525 25.14,25.14 0 0 1 6.453,3.967 c 5.794,4.649 5.878,14.206 3.927,22.479 z"
       id="path298"
       inkscape:connector-curvature="0"
       style="fill:#263238" />
    <path
       class="m"
       d="m 112.762,307.021 a 37.84,37.84 0 0 1 -0.628,2.392 c -1.848,6.387 -4.765,11.555 -6.866,12.353 H 45.625 a 5.373,5.373 0 0 1 -4.247,-2.081 c -0.009,-0.019 -0.028,-0.037 -0.047,-0.066 a 4.713,4.713 0 0 1 -0.553,-0.91 c -4.118,-8.6 -8.273,-25.8 -2.429,-33.644 a 13.033,13.033 0 0 1 2.1,-2.214 2.049,2.049 0 0 1 0.169,-0.131 17.57,17.57 0 0 1 4.071,-2.486 c 0.009,0 0.009,-0.009 0.019,-0.009 0.01,0 0.019,-0.009 0.028,-0.009 4.108,-1.857 9.154,-2.711 14.107,-3.076 a 72.939,72.939 0 0 1 4.258,-0.206 c 3.658,-0.1 7.072,-0.009 9.792,0.066 9.586,0.244 17.127,3.1 22.267,2.6 a 15.425,15.425 0 0 1 5.665,0.45 15.982,15.982 0 0 1 1.557,0.525 25.14,25.14 0 0 1 6.453,3.967 c 5.794,4.649 5.878,14.206 3.927,22.479 z"
       id="path300"
       inkscape:connector-curvature="0"
       style="opacity:0.1;isolation:isolate;fill:#ffffff" />
    <path
       class="n"
       d="m 103.627,306.43 c -4.268,0 -12.8,2.035 -25.418,-0.741 a 40.1,40.1 0 0 0 -17.908,-0.136 c -0.135,-1.9 -0.293,-3.965 -0.457,-6.233 -1.116,-15.241 -9.811,-21.638 -15.11,-19.106 -0.009,0 -0.019,0.009 -0.028,0.009 -0.009,0 -0.009,0.009 -0.019,0.009 a 23.462,23.462 0 0 0 -4.071,2.486 2.05,2.05 0 0 0 -0.169,0.131 13.034,13.034 0 0 0 -2.1,2.214 c -5.844,7.837 -1.689,25.043 2.431,33.644 a 4.713,4.713 0 0 0 0.553,0.91 c 0.019,0.028 0.038,0.047 0.047,0.066 a 5.4,5.4 0 0 0 4.052,1.829 h 10.7 c 4.36,0 4.877,-3.993 4.391,-12.578 a 59.374,59.374 0 0 0 2.662,-1.632 c 2.654,-1.726 12.981,-0.872 17.436,0.8 4.455,1.672 16.142,2.411 21.8,1.491 a 37.779,37.779 0 0 1 9.717,-0.178 c 0.234,-0.779 0.441,-1.576 0.628,-2.392 -1.953,-0.209 -6.014,-0.593 -9.137,-0.593 z"
       id="path302"
       inkscape:connector-curvature="0"
       style="opacity:0.2;isolation:isolate" />
    <path
       class="n"
       d="m 64.853,284.904 c 2.6,9.464 4.38,12.8 5.065,13.731 0.685,0.931 19.575,3.17 23.12,3.161 a 68.641,68.641 0 0 0 12.231,-1.2 c 2.41,-0.61 3.189,-12.747 -2.889,-20.025 a 15.988,15.988 0 0 0 -1.557,-0.525 c 3.311,7.428 3.386,16.526 2.992,17.793 -0.563,1.8 -6.125,1.538 -8.723,1.482 -2.598,-0.056 -18.74,-1.06 -20.409,-1.716 a 8.563,8.563 0 0 1 -3.892,-3.236 c -1.3,-1.67 -1.482,-7.419 -3.836,-12.381 A 19.47,19.47 0 0 0 63.1,276.933 c -1.4,0.028 -2.823,0.094 -4.258,0.206 a 12.371,12.371 0 0 1 6.011,7.765 z"
       id="path304"
       inkscape:connector-curvature="0"
       style="opacity:0.2;isolation:isolate" />
    <path
       class="h"
       d="m 46.114,293.622 -5.2,1.3 c 0,0 -3.689,10.575 -1.484,15.028 2.205,4.453 -15.045,10.588 -23.58,7.507 l 3.357,4.307 c 0,0 20.409,-1.286 24.3,-9.055 3.891,-7.769 -1.67,-8.963 -2.04,-11.148 -0.37,-2.185 4.647,-7.939 4.647,-7.939 z"
       id="path306"
       inkscape:connector-curvature="0"
       style="fill:#263238" />
    <path
       class="m"
       d="m 46.114,293.622 -5.2,1.3 c 0,0 -3.689,10.575 -1.484,15.028 2.205,4.453 -15.045,10.588 -23.58,7.507 l 3.357,4.307 c 0,0 20.409,-1.286 24.3,-9.055 3.891,-7.769 -1.67,-8.963 -2.04,-11.148 -0.37,-2.185 4.647,-7.939 4.647,-7.939 z"
       id="path308"
       inkscape:connector-curvature="0"
       style="opacity:0.1;isolation:isolate;fill:#ffffff" />
  </g>
  <g
     id="g388"
     transform="matrix(1,0,0,0.91478831,0,-14.583043)">
    <path
       class="o"
       d="m 95.836461,99.636505 c 0,0 -20.907293,-10.126328 -25.233334,-12.750339 C 66.277085,84.262164 43.123959,64.597431 41.825001,64.03566 c 0,0 0.865625,-2.247992 -1.08125,-3.559093 -1.946875,-1.311102 -9.520834,-5.619526 -10.602084,-5.619526 -1.08125,0 -3.895833,9.177716 -3.461458,11.425707 0.434375,2.247986 11.034375,2.809766 11.034375,2.809766 0,0 22.070834,22.245456 25.532292,25.35819 3.461459,3.112742 27.046876,16.411316 27.046876,16.411316 z"
       id="path312"
       inkscape:connector-curvature="0"
       style="fill:#e4897b;stroke-width:0.96917117" />
    <path
       class="e"
       d="m 104.41771,101.49133 c 0,0 4.58333,8.0145 -6.545833,20.72877 L 73.341668,106.60861 83.133335,91.257714 Z"
       id="path314"
       inkscape:connector-curvature="0"
       style="fill:#407bff;stroke-width:0.96917117" />
    <path
       class="j"
       d="m 97.871877,122.22189 -11.5875,-7.37516 -1.514583,-0.96394 -6.536459,-4.15243 -4.895833,-3.12086 3.605208,-5.64116 2.041667,-3.205609 4.152083,-6.504121 4.00625,1.927883 3.458334,1.657367 13.814586,6.64747 a 10.989584,9.5131552 0 0 1 0.83333,2.91799 c 0.43854,3.40941 -0.22604,9.63397 -7.377083,17.81257 z"
       id="path316"
       inkscape:connector-curvature="0"
       style="opacity:0.6;isolation:isolate;fill:#ffffff;stroke-width:0.96917117" />
    <path
       class="n"
       d="m 97.871877,122.22189 -11.5875,-7.37516 c 3.976042,-7.12359 14.264583,-9.63309 18.963543,-10.43652 0.43958,3.40852 -0.22396,9.63308 -7.376043,17.81168 z"
       id="path318"
       inkscape:connector-curvature="0"
       style="opacity:0.2;isolation:isolate;stroke-width:0.96917117" />
    <g
       class="p"
       id="g322"
       transform="matrix(1.0416667,0,0,0.90172087,0,31.61699)"
       style="opacity:0.2">
      <path
         class="q"
         d="m 86.978,70.118 -3.32,1.932 v -3.77 z m -7.222,4.399 -4.164,5.843 -1.726,-3.452 1.96,-3.555 z m 3.077,8.789 -1.454,7.926 -6.275,-4.605 z m 2.879,-4.518 2.319,5.934 4.814,-6.542 z"
         id="path320"
         inkscape:connector-curvature="0"
         style="fill:#ffffff" />
    </g>
    <path
       class="o"
       d="m 150.01771,97.699604 c 0,0 20.90625,-10.127227 25.23438,-12.749436 4.32812,-2.622198 27.47916,-22.288731 28.77708,-22.851405 0,0 -0.86562,-2.247087 1.08229,-3.558191 1.94792,-1.311102 9.51979,-5.619524 10.60209,-5.619524 1.08229,0 3.89479,9.177715 3.46146,11.425705 -0.43334,2.24799 -11.03542,2.809763 -11.03542,2.809763 0,0 -22.06979,22.245457 -25.53229,25.358191 -3.4625,3.112746 -27.04688,16.411323 -27.04688,16.411323 z M 125.03229,204.87725 c 0,0 -0.44895,6.40222 -1.1625,14.92801 -0.44895,5.31112 -1.00625,11.44282 -1.6125,17.37163 -0.82083,7.96671 -1.74895,15.5619 -2.67708,20.2815 -0.85,4.33908 -12.13437,58.22142 -12.13437,58.22142 h -7.562504 c 2.384374,-50.2466 6.077084,-69.73278 6.213544,-72.65887 0.049,-0.95582 0.0875,-2.28316 0.13646,-3.86478 0.14687,-5.73405 0.27395,-14.78822 0.35208,-21.3807 0.0583,-4.75297 0.0875,-8.21199 0.0875,-8.21199 z m 29.18438,40.65589 c -0.26354,4.38957 -3.28229,69.92666 -3.28229,69.92666 h -8.31563 c -4.25,-52.19973 -2.6375,-70.32431 -3.4,-73.94113 0,-0.017 -0.009,-0.0253 -0.009,-0.0424 -1.29896,-6.15695 -2.52084,-14.2472 -3.36146,-20.25627 a 667.11147,577.48639 0 0 1 -1.09375,-8.30573 l 16.95104,-6.34271 c 0,0 1.02604,7.57446 1.79792,16.72872 0.38125,4.56721 0.71354,9.53208 0.81042,14.14981 0.0687,2.88821 0.049,5.64656 -0.0969,8.08302 z"
       id="path324"
       inkscape:connector-curvature="0"
       style="fill:#e4897b;stroke-width:0.96917117" />
    <path
       class="n"
       d="m 106.58646,217.77456 17.28333,2.02977 c -0.44895,5.31115 -1.00625,11.44285 -1.6125,17.37165 l -16.02291,1.97928 c 0.14687,-5.73403 0.27396,-14.79183 0.35208,-21.3807 z m 47.72709,19.67284 -15.10417,4.02621 c -1.29896,-6.15696 -2.52084,-14.24723 -3.36042,-20.25627 l 17.65417,2.08026 c 0.38021,4.56721 0.7125,9.53209 0.81042,14.1498 z"
       id="path326"
       inkscape:connector-curvature="0"
       style="opacity:0.2;isolation:isolate;stroke-width:0.96917117" />
    <path
       class="e"
       d="m 109.23646,313.66895 h -9.973958 a 0.71875002,0.6221874 0 0 0 -0.7,0.48785 l -1.61875,6.32917 a 1.2125,1.0496031 0 0 0 1.201042,1.26239 c 3.229166,-0.045 5.578126,-0.21729 9.629166,-0.21729 2.5,0 10.02708,0.22633 13.47396,0.22633 3.44687,0 3.89583,-2.94772 2.48542,-3.21914 -6.32917,-1.19298 -11.09167,-2.84764 -13.11875,-4.41843 a 1.9791667,1.7132696 0 0 0 -1.37813,-0.45088 z m 42.29688,-0.22541 h -9.97396 a 0.71979168,0.62308912 0 0 0 -0.7,0.48782 l -1.61875,6.32919 a 1.2114584,1.0487015 0 0 0 0.9375,1.24346 1.2322917,1.0667358 0 0 0 0.26666,0.0224 c 3.22917,-0.046 5.57813,-0.21731 9.63021,-0.21731 2.5,0 10.02605,0.22543 13.47292,0.22543 3.44688,0 3.89583,-2.94773 2.48542,-3.21825 -6.32917,-1.19298 -11.09167,-2.84853 -13.11875,-4.4184 a 1.9791667,1.7132696 0 0 0 -1.38125,-0.45449 z"
       id="path328"
       inkscape:connector-curvature="0"
       style="fill:#407bff;stroke-width:0.96917117" />
    <path
       class="h"
       d="m 125.71146,233.48435 c 0.0792,-0.57711 0.15938,-1.18216 0.23958,-1.85395 1.01355,-8.66193 2.04688,-19.05786 2.96667,-29.07418 3.37604,7.85488 4.83125,18.89195 6.58646,30.92903 H 156.025 a 601.97189,521.09818 0 0 0 -8.50937,-67.29724 h -43.57188 c -0.0531,3.87198 -0.55104,41.44218 -1.66666,67.29724 z"
       id="path330"
       inkscape:connector-curvature="0"
       style="fill:#263238;stroke-width:0.96917117" />
    <path
       class="g"
       d="m 125.71146,233.48435 c 0.0792,-0.57711 0.15938,-1.18216 0.23958,-1.85395 1.01355,-8.66193 2.04688,-19.05786 2.96667,-29.07418 3.37604,7.85488 4.83125,18.89195 6.58646,30.92903 H 156.025 a 601.97189,521.09818 0 0 0 -8.50937,-67.29724 h -43.57188 c -0.0531,3.87198 -0.55104,41.44218 -1.66666,67.29724 z"
       id="path332"
       inkscape:connector-curvature="0"
       style="opacity:0.2;isolation:isolate;fill:#ffffff;stroke-width:0.96917117" />
    <path
       class="o"
       d="m 131.69479,89.043986 a 11.717709,10.143457 0 0 1 -0.35416,1.005417 11.389584,9.8594162 0 0 1 -4.0625,4.688951 11.520834,9.9730336 0 0 1 -1.48646,0.795322 A 10.289584,8.9071988 0 0 1 113.5,93.84114 c -4.11458,-3.596967 -4.00521,-7.748483 -4.46771,-14.778297 a 11.135417,9.6393961 0 0 1 15.36563,-9.614156 c 7.96562,2.807957 9.05833,13.267929 7.29687,19.595299 z"
       id="path334"
       inkscape:connector-curvature="0"
       style="fill:#e4897b;stroke-width:0.96917117" />
    <path
       class="n"
       d="m 127.27917,94.735644 a 11.51875,9.9712291 0 0 1 -1.48646,0.795324 10.35,8.9594986 0 0 1 -8.89583,0.340853 12.141667,10.510459 0 0 1 1.45104,-2.38596 16.033334,13.879286 0 0 1 8.93125,1.249783 z"
       id="path336"
       inkscape:connector-curvature="0"
       style="opacity:0.2;isolation:isolate;stroke-width:0.96917117" />
    <path
       class="o"
       d="m 110.93646,103.85295 c 4,3.1461 13.8,1.9838 13.8,1.9838 0,0 6.11667,-1.44998 4.83229,-3.10464 -3.60312,-0.51489 -5.34791,-1.97025 -6.06875,-3.833217 A 10.460417,9.0550811 0 0 1 123.13438,95.336197 21.513542,18.623242 0 0 1 123.4375,93.347 l -12.11562,-7.76382 c 1.58854,5.124486 3.53021,14.55378 -0.38542,18.26977 z"
       id="path338"
       inkscape:connector-curvature="0"
       style="fill:#e4897b;stroke-width:0.96917117" />
    <path
       class="h"
       d="m 127.27813,82.644476 1.75208,0.573488 -0.87604,-3.100108 c 0,0 2.56771,-3.33637 0,-6.318359 0,0 7.07604,-1.860253 3.07917,-5.093829 -1.4875,-1.203789 -3.33334,0 -8.21146,-1.843115 -2.64896,-1.000007 -10.9375,-1.077556 -11.34584,1.843115 0,0 -5.96666,-0.0334 -6.61041,8.789979 a 20.33125,17.599788 0 0 0 6.31979,13.902731 c 0,0 7.20417,1.47792 10.70312,-1.026157 3.49896,-2.504077 5.18959,-7.727745 5.18959,-7.727745 z"
       id="path340"
       inkscape:connector-curvature="0"
       style="fill:#263238;stroke-width:0.96917117" />
    <path
       class="o"
       d="m 122.66354,83.147638 a 5.2625001,4.5554938 0 0 0 2.70209,3.123558 c 1.65416,0.606853 2.73958,-1.410292 2.5,-3.523027 -0.22709,-1.872867 -1.34688,-4.508599 -3.11667,-4.161445 -1.76979,0.347163 -2.66146,2.670899 -2.08542,4.560914 z"
       id="path342"
       inkscape:connector-curvature="0"
       style="fill:#e4897b;stroke-width:0.96917117" />
    <path
       class="n"
       d="m 128.91667,202.51744 c -0.91979,10.01812 -1.95313,20.43298 -2.96667,29.09493 -1.48333,-12.50327 -3.3,-21.41857 -3.3,-21.41857 0,0 -1.70312,-1.21102 -6.38229,-7.67636 -4.67917,-6.46535 0,-18.53398 0,-18.53398 -0.14583,11.2075 12.64896,18.53398 12.64896,18.53398 z"
       id="path344"
       inkscape:connector-curvature="0"
       style="opacity:0.2;isolation:isolate;stroke-width:0.96917117" />
    <path
       class="e"
       d="m 157.50417,232.01453 -0.90208,2.93871 h -21.84792 v -2.71238 z m -30.72813,0.40848 -0.65312,2.71237 h -24.73958 l -1.495838,-2.71237 z"
       id="path346"
       inkscape:connector-curvature="0"
       style="fill:#407bff;stroke-width:0.96917117" />
    <g
       id="g352"
       transform="matrix(1.0416667,0,0,0.90172087,0,31.61699)">
      <path
         class="e"
         d="m 124.626,77.848 c 0,0 -3.411,-5.4 -12.017,-5.783 -8.606,-0.383 -9.253,5.538 -9.253,5.538 z"
         id="path348"
         inkscape:connector-curvature="0"
         style="fill:#407bff" />
      <path
         d="m 174.641,156.208 c 0,0 -3.411,-5.4 -12.017,-5.783 -8.606,-0.383 -9.253,5.538 -9.253,5.538 z"
         transform="translate(-50.015,-78.36)"
         style="opacity:0.5;isolation:isolate;fill:#ffffff"
         id="path350"
         inkscape:connector-curvature="0" />
    </g>
    <path
       class="e"
       d="M 99.684847,89.526569 A 442.52851,505.59447 0 0 1 98.784381,189.80986 l 50.426039,-3.51389 c -0.57129,-58.79665 -7.46185,-95.821768 -7.46185,-95.821768 0,0 -13.00672,3.114951 -23.57417,2.66457 A 75.846164,86.655212 0 0 1 99.684847,89.526569 Z"
       id="path354"
       inkscape:connector-curvature="0"
       style="fill:#407bff;stroke-width:1.06943619" />
    <g
       id="g366"
       transform="matrix(1.0079043,0,0,1.1156731,4.8366314,7.9941882)">
      <path
         class="e"
         d="m 135.783,75.344 c 0,0 6.73,15.735 7.458,31.667 0.728,15.932 -27.357,37.772 -27.357,37.772 0,0 -21.637,-14.893 -38.334,-13.544 -16.697,1.349 -21.892,7.288 -21.892,7.288 0,0 12.988,-27.768 35.593,-37.45 0,0 -4.692,-15.992 2.492,-26.562 -0.002,0 15.624,5.082 42.04,0.829 z"
         id="path356"
         inkscape:connector-curvature="0"
         style="fill:#407bff" />
      <path
         class="j"
         d="m 143.24,107.007 a 13.016,13.016 0 0 1 -0.009,1.351 15.827,15.827 0 0 1 -0.253,2.073 22.448,22.448 0 0 1 -1.435,4.727 v 0.009 a 51.664,51.664 0 0 1 -7.766,12.2 95.694,95.694 0 0 1 -4.952,5.571 131.84,131.84 0 0 1 -12.934,11.846 103.1,103.1 0 0 0 -18.036,-9.52 70.697,70.697 0 0 0 -5.956,-2.1 H 91.89 a 39.734,39.734 0 0 0 -14.332,-1.923 54.824,54.824 0 0 0 -13.618,2.666 34.677,34.677 0 0 0 -2.692,1.069 23,23 0 0 0 -4.014,2.242 c -0.141,0.094 -0.272,0.2 -0.394,0.291 a 8.102,8.102 0 0 0 -0.61,0.488 2.414,2.414 0 0 0 -0.225,0.2 1.244,1.244 0 0 0 -0.159,0.15 l -0.113,0.113 -0.066,0.066 c 0.019,-0.047 0.113,-0.244 0.281,-0.582 0.075,-0.141 0.159,-0.319 0.263,-0.516 0.263,-0.525 0.628,-1.229 1.107,-2.082 0.066,-0.122 0.131,-0.244 0.206,-0.375 q 0.169,-0.31 0.366,-0.647 c 0.122,-0.225 0.253,-0.46 0.394,-0.694 a 94.4,94.4 0 0 1 1.9,-3.18 95.184,95.184 0 0 1 13.6,-17.2 l 0.009,-0.009 a 65.98,65.98 0 0 1 5.853,-5.168 52.292,52.292 0 0 1 11.593,-6.988 45.253,45.253 0 0 1 -1.482,-12.54 32.762,32.762 0 0 1 0.328,-4.005 23.627,23.627 0 0 1 3.655,-10.023 48.629,48.629 0 0 0 7.035,1.491 91.225,91.225 0 0 0 9.408,0.91 118.636,118.636 0 0 0 18.927,-0.666 q 3.208,-0.352 6.669,-0.91 c 0,0 0.075,0.178 0.216,0.525 a 110.7,110.7 0 0 1 3.855,11.452 c 0.413,1.491 0.825,3.086 1.219,4.755 0.356,1.548 0.694,3.161 0.994,4.821 v 0.009 a 78.462,78.462 0 0 1 1.177,10.103 z"
         id="path358"
         inkscape:connector-curvature="0"
         style="opacity:0.6;isolation:isolate;fill:#ffffff" />
      <g
         class="k"
         id="g362"
         style="opacity:0.2;isolation:isolate">
        <path
           class="q"
           d="m 136.736,119.791 -2.964,7.579 a 95.694,95.694 0 0 1 -4.952,5.571 l -6.031,-11.293 z m -51.023,-7.241 -11.912,0.685 a 65.98,65.98 0 0 1 5.853,-5.168 z m 13.74,-30.005 -1.276,12.381 -8.413,-6.387 a 32.762,32.762 0 0 1 0.328,-4 z m 3.903,32.618 -3.9,-11.886 11.859,-2.2 z m 20.405,-11.326 v 8.9 l 8.519,-3.061 z m -21.907,25.783 -4.005,5.646 a 70.697,70.697 0 0 0 -5.956,-2.1 h -0.009 l -3.02,-6.884 z m -30.426,-8.533 6.122,2.6 -6.122,4.174 z m -7.487,12.82 c -6.1,2.129 -8.282,4.624 -8.282,4.624 a 84.535,84.535 0 0 1 4.53,-8.085 z m 50.05,-11.521 -5.273,5.473 7.973,1.391 z m 0,-34.322 6.2,8.349 4.438,-9.462 z m 28.073,8.831 -7.926,-5.215 5.712,-4.361 a 104.247,104.247 0 0 1 2.214,9.576 z m 1.163,11.462 a 20.607,20.607 0 0 1 -1.688,6.8 l -3.32,-8.169 z m -7.232,-32.49 -5.018,5.149 -1.867,-4.765 q 3.208,-0.352 6.669,-0.91 c 0,0 0.076,0.181 0.216,0.526 z m -25.812,1.051 -3.686,7.8 -5.721,-8.713 a 91.221,91.221 0 0 0 9.407,0.913 z"
           id="path360"
           inkscape:connector-curvature="0"
           style="fill:#ffffff" />
      </g>
      <path
         class="n"
         d="m 143.236,107.006 a 13.008,13.008 0 0 1 -0.009,1.351 15.825,15.825 0 0 1 -0.253,2.073 c -6.547,-10.411 -5.009,-19.828 -5.009,-19.828 l 3.1,1.473 c 0.356,1.548 0.694,3.161 0.994,4.821 v 0.009 a 78.455,78.455 0 0 1 1.177,10.101 z"
         id="path364"
         inkscape:connector-curvature="0"
         style="opacity:0.2;isolation:isolate" />
    </g>
    <g
       id="g376"
       transform="matrix(1.0416667,0,0,0.90172087,0,31.61699)">
      <path
         class="e"
         d="m 116.634,33.891 c 11.131,-3.834 13.927,10.994 2.87,21.019 -11.057,10.025 -23.754,11.224 -25.2,6.173 -1.446,-5.051 5.34,-21.339 22.33,-27.192 z"
         id="path368"
         inkscape:connector-curvature="0"
         style="fill:#407bff" />
      <path
         class="e"
         d="m 105.479,33.149 c 5.712,-0.023 13.829,5.813 13.829,5.813 0,0 1.159,6.184 -4.529,11.627 -5.688,5.443 -10.813,6.308 -14,4.2 -3.187,-2.108 -4.055,-10.3 -4.055,-10.3 a 6.3,6.3 0 0 1 4.055,-4.176 c 0,0 0.935,-7.149 4.7,-7.164 z"
         id="path370"
         inkscape:connector-curvature="0"
         style="fill:#407bff" />
      <path
         class="n"
         d="m 114.779,50.591 c -5.693,5.44 -10.814,6.3 -14,4.2 a 5.08,5.08 0 0 1 -1.388,-1.463 c -2.063,-3.1 -2.664,-8.835 -2.664,-8.835 5.44,6.528 11.743,-0.216 12.615,-4.793 a 7.243,7.243 0 0 0 -1.454,-6.275 c 3.742,0.807 7.86,3.208 9.98,4.568 0.9,0.572 1.444,0.966 1.444,0.966 0,0 1.16,6.192 -4.533,11.632 z"
         id="path372"
         inkscape:connector-curvature="0"
         style="opacity:0.2;isolation:isolate" />
      <path
         class="j"
         d="m 114.779,50.594 c -5.693,5.44 -10.814,6.3 -14,4.2 a 5.08,5.08 0 0 1 -1.388,-1.463 c 5.7,1.7 12.493,-1.126 16.142,-6.2 a 12.564,12.564 0 0 0 2.335,-9.135 c 0.9,0.572 1.444,0.966 1.444,0.966 0,0 1.161,6.188 -4.533,11.632 z"
         id="path374"
         inkscape:connector-curvature="0"
         style="opacity:0.6;isolation:isolate;fill:#ffffff" />
    </g>
    <g
       id="g386"
       transform="matrix(1.0416667,0,0,0.90172087,0,31.61699)">
      <path
         class="e"
         d="m 135.779,75.343 c 0,0 -4.4,8.888 6.284,22.988 l 23.549,-17.313 -9.4,-17.024 z"
         id="path378"
         inkscape:connector-curvature="0"
         style="fill:#407bff" />
      <path
         class="j"
         d="m 165.614,81.017 -6.143,4.511 -9.089,6.687 -8.319,6.115 a 50.715,50.715 0 0 1 -1.51,-2.1 40.624,40.624 0 0 1 -2.589,-4.352 25.253,25.253 0 0 1 -3.086,-11.33 12.451,12.451 0 0 1 0.9,-5.206 l 5.234,-2.908 9.014,-5 3.958,-2.2 2.232,-1.238 z"
         id="path380"
         inkscape:connector-curvature="0"
         style="opacity:0.6;isolation:isolate;fill:#ffffff" />
      <g
         class="p"
         id="g384"
         style="opacity:0.2">
        <path
           class="q"
           d="m 159.471,85.529 -9.089,6.687 -4,-8.91 z m -0.844,-14.332 -8.385,3.32 -0.216,-7.081 3.958,-2.2 z m -14.614,6.978 -9.135,2.373 a 12.451,12.451 0 0 1 0.9,-5.206 l 5.234,-2.908 z m -1.95,11.378 -1.51,6.678 a 40.62,40.62 0 0 1 -2.589,-4.352 z"
           id="path382"
           inkscape:connector-curvature="0"
           style="fill:#ffffff" />
      </g>
    </g>
  </g>
  <g
     id="g426"
     transform="matrix(1.0416667,0,0,0.89264341,-27.998502,-6.4656096)">
    <g
       transform="translate(175.834,171.439)"
       id="g424">
      <path
         transform="rotate(-175.521,12.81,30.788)"
         style="fill:none;stroke:#263238;stroke-width:3px;stroke-miterlimit:10"
         d="M 0,0 H 11.756 V 58.443 H 0 Z"
         id="path390"
         inkscape:connector-curvature="0" />
      <path
         class="h"
         d="m 14.467,142.722 1.863,0.146 a 3.736,3.736 0 1 1 -0.583,7.447 l -1.863,-0.146 a 3.736,3.736 0 1 1 0.583,-7.447 z"
         id="path392"
         inkscape:connector-curvature="0"
         style="fill:#263238" />
      <path
         class="m"
         d="m 10.386,146.08 a 3.8,3.8 0 1 0 4.089,-3.495 3.8,3.8 0 0 0 -4.089,3.495 z"
         id="path394"
         inkscape:connector-curvature="0"
         style="opacity:0.1;isolation:isolate;fill:#ffffff" />
      <path
         class="h"
         d="m 4.226,141.92 1.863,0.145 a 3.736,3.736 0 1 1 -0.583,7.447 l -1.861,-0.145 a 3.736,3.736 0 1 1 0.583,-7.447 z"
         id="path396"
         inkscape:connector-curvature="0"
         style="fill:#263238" />
      <path
         class="g"
         d="m 0.144,145.278 a 3.8,3.8 0 1 0 4.089,-3.495 3.8,3.8 0 0 0 -4.089,3.495 z"
         id="path398"
         inkscape:connector-curvature="0"
         style="opacity:0.2;isolation:isolate;fill:#ffffff" />
      <rect
         class="h"
         width="19.604"
         height="93.521004"
         rx="2.694"
         transform="rotate(-175.56,12.591,71.806)"
         id="rect400"
         x="0"
         y="0"
         style="fill:#263238" />
      <rect
         class="g"
         width="12.345"
         height="93.521004"
         rx="2.694"
         transform="rotate(-175.521,12.595,71.807)"
         id="rect402"
         x="0"
         y="0"
         style="opacity:0.2;isolation:isolate;fill:#ffffff" />
      <rect
         class="h"
         width="15.991"
         height="4.902"
         rx="2"
         transform="rotate(-175.56,15.027,2.486)"
         id="rect404"
         x="0"
         y="0"
         style="fill:#263238" />
      <rect
         class="g"
         width="15.991"
         height="4.902"
         rx="2"
         transform="rotate(-175.56,15.027,2.486)"
         id="rect406"
         x="0"
         y="0"
         style="opacity:0.2;isolation:isolate;fill:#ffffff" />
      <rect
         class="n"
         width="4.7779999"
         height="4.902"
         rx="2"
         transform="rotate(-175.526,9.421,2.266)"
         id="rect408"
         x="0"
         y="0"
         style="opacity:0.2;isolation:isolate" />
      <path
         class="e"
         d="m 53.643,60.277 -6.243,79.69 a 5.33,5.33 0 0 1 -5.723,4.892 l -29.115,-2.28 a 3.744,3.744 0 0 1 -3.428,-4.023 l 6.49,-82.843 a 3.736,3.736 0 0 1 4.013,-3.44 l 29.115,2.281 a 5.331,5.331 0 0 1 4.891,5.723 z"
         id="path410"
         inkscape:connector-curvature="0"
         style="fill:#407bff" />
      <path
         class="g"
         d="m 53.643,60.277 -6.243,79.69 a 5.33,5.33 0 0 1 -5.723,4.892 l -29.115,-2.28 a 3.744,3.744 0 0 1 -3.428,-4.023 l 6.49,-82.843 a 3.736,3.736 0 0 1 4.013,-3.44 l 29.115,2.281 a 5.331,5.331 0 0 1 4.891,5.723 z"
         id="path412"
         inkscape:connector-curvature="0"
         style="opacity:0.2;isolation:isolate;fill:#ffffff" />
      <path
         class="n"
         d="M 33.65,53.373 33.641,53.486 32.6,53.402 a 3.745,3.745 0 0 0 -4.014,3.442 l -6.491,82.857 a 3.741,3.741 0 0 0 2.561,3.827 l -12.09,-0.947 a 3.75,3.75 0 0 1 -3.433,-4.014 l 6.491,-82.848 a 3.738,3.738 0 0 1 4.014,-3.442 z"
         id="path414"
         inkscape:connector-curvature="0"
         style="opacity:0.2;isolation:isolate" />
      <rect
         class="n"
         width="2.4749999"
         height="83.523003"
         rx="1.0880001"
         transform="rotate(4.48,-701.964,436.542)"
         id="rect416"
         x="0"
         y="0"
         style="opacity:0.2;isolation:isolate" />
      <rect
         class="n"
         width="2.4749999"
         height="83.523003"
         rx="1.0880001"
         transform="rotate(4.48,-710.087,511.343)"
         id="rect418"
         x="0"
         y="0"
         style="opacity:0.2;isolation:isolate" />
      <rect
         class="n"
         width="2.4749999"
         height="83.523003"
         rx="1.0880001"
         transform="rotate(4.481,-711.36,585.784)"
         id="rect420"
         x="0"
         y="0"
         style="opacity:0.2;isolation:isolate" />
      <rect
         class="n"
         width="2.4749999"
         height="83.523003"
         rx="1.0880001"
         transform="rotate(4.48,-712.96,660.448)"
         id="rect422"
         x="0"
         y="0"
         style="opacity:0.2;isolation:isolate" />
    </g>
  </g>
</svg>
