<svg xmlns="http://www.w3.org/2000/svg" width="350" height="290" version="1.1" id="svg428">
  <defs id="defs224">
    <style id="style222">
      .a{fill:#f5f5f5}.b{fill:#ebebeb}.d{fill:#e0e0e0}.e{fill:#407bff}.f,.g,.j,.m,.q{fill:#fff}.f{opacity:.8}.f,.g,.j,.k,.m,.n{isolation:isolate}.g,.k,.n,.p{opacity:.2}.h{fill:#263238}.j{opacity:.6}.m{opacity:.1}.o{fill:#e4897b}
    </style>
  </defs>
  <g id="g4152" transform="matrix(.91146 0 0 1.0005 0 -42.167)">
    <g transform="matrix(1 0 0 .90127 0 31.768)" id="g254">
      <ellipse style="fill:#f5f5f5;stroke-width:1.08227348" id="circle226" cy="102.759" cx="268.52" class="a" rx="44.11" ry="40.321"/>
      <path style="fill:#ebebeb;stroke-width:.91207886" id="path228" d="M326.548 83.726a5.865 5.705 0 0 0-7.555-5.468 12.426 12.087 0 0 0-14.588-13.636 10.863 10.567 0 0 0-20.145 5.342c-.061 0-.12-.008-.185-.008a10.014 9.74 0 1 0 0 19.48h36.775l-.007-.008a5.866 5.706 0 0 0 5.705-5.702zm-92.985 31.421a5.867 5.707 0 0 0-7.555-5.468 12.423 12.084 0 0 0-14.587-13.635 10.863 10.567 0 0 0-20.146 5.341c-.06 0-.12-.008-.185-.008a10.014 9.74 0 1 0 0 19.48h36.778l-.008-.008a5.865 5.705 0 0 0 5.702-5.702zM71.38 125.952a5.865 5.705 0 0 0-7.555-5.469 12.426 12.087 0 0 0-14.59-13.635 10.863 10.567 0 0 0-20.145 5.342c-.061 0-.12-.008-.185-.008a10.014 9.74 0 1 0 0 19.48h36.773l-.007-.008a5.866 5.706 0 0 0 5.71-5.702zm251.775 27.243a3.546 3.449 0 0 0-4.566-3.305 7.51 7.304 0 0 0-8.817-8.241 6.566 6.387 0 0 0-12.176 3.228c-.037 0-.073-.005-.11-.005a6.052 5.887 0 1 0 0 11.773h22.226v-.005a3.545 3.448 0 0 0 3.443-3.444zM108.325 42.23a3.543 3.446 0 0 0-4.565-3.305 7.506 7.3 0 0 0-8.817-8.245 6.566 6.387 0 0 0-12.177 3.228c-.036 0-.072-.006-.109-.006a6.053 5.888 0 0 0 0 11.774h22.227l-.006-.005a3.545 3.448 0 0 0 3.447-3.44zM48.744 171.106l23.49 103.779 4.269-1.948L51.835 170.52Z" class="b"/>
      <path id="path230" style="fill:#e6e6e6" d="M320.031 274.882s-15.7-108.4 19.646-220.523l-5.546-4.277s-41.423 84.79-35.392 227.843z"/>
      <path style="fill:#e0e0e0" id="path232" d="M349.225 35.47c12.959-8.493 32.144 5.023 34.774 26.14a40.037 40.037 0 0 0-5.949-2.827c-1-5.312-1.972-10.015-1.972-10.015l.689 9.536a49.266 49.266 0 0 0-3.731-1.173l-.9-5.133-.423 4.792a46.055 46.055 0 0 0-5.572-.987l-2.416-14.977-1.256 14.715a39.423 39.423 0 0 0-5.751.255l-1.482-10.19-.013 10.391a37.175 37.175 0 0 0-4.859 1.121l-1.775-15.2s.053 8.546-.044 15.793a39.884 39.884 0 0 0-12.515 7.363l-.135-1.87s1.503-19.984 13.33-27.735z" class="d"/>
      <path style="fill:#e0e0e0" id="path234" d="M331.319 28.682c-10.288-11.585-32.339-3.557-40.4 16.138a40.1 40.1 0 0 1 6.481-1.172 707.962 707.962 0 0 1 4.523-9.15l-3.159 9.024c1.206-.1 2.513-.157 3.908-.158l2.207-4.72-.844 4.735a46.391 46.391 0 0 1 5.636.506l6.25-13.822-2.637 14.53a39.685 39.685 0 0 1 5.485 1.75l4.1-9.448-2.705 10.034a37.19 37.19 0 0 1 4.4 2.352l5.687-14.206s-2.286 8.235-4.087 15.255a39.891 39.891 0 0 1 10.154 10.38l.62-1.772s3.77-19.68-5.619-30.256z" class="d"/>
      <path style="fill:#e0e0e0" id="path236" d="M321.4 56.155c10.314-10.07 18.065-1.306 18.065-1.306a22.513 22.513 0 0 0-10.341 6.647l-1.4-1.817.224 3.1a44.879 44.879 0 0 0-2.072 2.577l-2.364-5.375 1.008 7.277a64.72 64.72 0 0 0-2.649 4.246l-1.041-5.334.079 7.068a85.98 85.98 0 0 0-2.313 4.631l-1.124-9.78-.147 12.648c-1.651 3.9-2.508 6.643-2.508 6.643s-3.731-21.156 6.583-31.225zm27.854 23.784-2.131 1.227a122.771 122.771 0 0 0-1.081-5.105l1.452-2.652-1.822 1.126q-.218-.869-.454-1.734l1.856-5.2-2.779 2.07c-1.5-4.683-3.417-8.8-5.811-10.772 0 0 23.661 7.56 10.29 33.063 0 0-.428-4.038-1.38-9.338z" class="d"/>
      <path style="fill:#e0e0e0" id="path238" d="m325.985 59.077-3.784-7.125 1.556 7.422q-.563.093-1.143.207l-4.9-6.105 1.208 7.03a43.823 43.823 0 0 0-4.925 1.815 55.53 55.53 0 0 0-5.113 2.58l-2.39-6.236 1.112 6.98c-1.624.968-3.2 2-4.72 3.062l-1.189-5.5.112 6.264a100.575 100.575 0 0 0-5.23 4.055l.147-9.959-1.448 11.055a117.434 117.434 0 0 0-4.408 3.963l-.184-6.908-1.746 8.773c-1.824 1.807-2.866 2.965-2.866 2.965.952-24.19 10.318-33.8 25.835-36.392 15.517-2.592 26.692 13.521 26.692 13.521s-4.764-2.254-12.616-1.467zm45.244 29.563-1.419 7.211a109.62 109.62 0 0 0-2.781-6.647l1.27-10.553-2.325 8.32a81.394 81.394 0 0 0-6.3-10.879l2.208-7.316-3.582 5.43a49.245 49.245 0 0 0-2.229-2.736l1.257-4.606-1.937 3.85q-.795-.862-1.625-1.662l1.523-6.144-2.42 5.312a27 27 0 0 0-4.968-3.587l2.467-7.513-3.867 6.81a17.076 17.076 0 0 0-7.771-1.625s4.661-7.493 13.307-10.08c8.646-2.589 27.2 13.028 19.134 47.46 0 0-.247-.784-.726-2.122zM357.01 21.742l1.472 4.37a9.533 9.533 0 0 0-1.614.23l-1.776-5.689 1.185 5.841a12.6 12.6 0 0 0-3.185 1.454l-2.444-7.685 1.436 8.375c-.389.288-.785.606-1.187.96l-2.758-7.213 2.082 7.836a30.4 30.4 0 0 0-5.166 6.882l-.764-10.574-1.216 14.433a85.977 85.977 0 0 0-4.877 13.981s-1.5-38.417 7.756-42.766c9.256-4.349 14.763 14.147 14.763 14.147a5.409 5.409 0 0 0-1.266-.206z" class="d"/>
      <path style="fill:#e0e0e0" id="path240" d="m343.786 64.515-.826 7.29-2.778-7.029-3.774 5.5-1.473-5.123-4.338 3.64s.53-9.296 3.3-13.545c2.77-4.249 11.063-1.262 9.889 9.267z" class="d"/>
      <g id="g248" transform="matrix(1.10686 0 0 1.07515 -33.864 -21.152)">
        <path style="fill:#ebebeb" id="path242" d="M244.08 170.605v-50.814s-10.309 10.944-17.146 9.46c-6.837-1.484-15.743 3.69-15.743 3.69s8.944-1.3 12.264 2.326c3.32 3.626 18.139 4.018 18.139 4.018v33.184z" class="b"/>
        <path style="fill:#e0e0e0" id="path244" d="M289.555 155.028h-2.341v3.2h-7.732v-3.2h-7.591v3.2h-7.732v-3.2h-7.593v3.2h-7.73v-3.2h-7.591v3.2h-7.732v-3.2h-7.591v3.2h-7.732v-3.2h-7.591v3.2h-7.733v-3.2h-2.6l-7.533 60.215 104.614-.435z" class="d"/>
        <path style="fill:#ebebeb" id="path246" d="M306.202 198.737h-3.216v4.391h-10.625v-4.391h-10.43v4.391h-10.622v-4.391H260.88v4.391h-10.624v-4.391h-10.43v4.391h-10.624v-4.391h-10.429v4.391h-10.624v-4.391H197.72v4.391h-10.624v-4.391h-3.571l-10.35 82.732 143.734-.6z" class="b"/>
      </g>
      <path style="fill:#f5f5f5;stroke-width:.9878428" id="path250" d="M350.956 271.728c-2.167-2.505-4.213-5.065-6.482-7.477a2.51 2.573 0 0 1-.328-.4 19.014 19.485 0 0 0-2.334-1.318c-.143-.051-.618-.246-1.11-.431a92.447 94.736 0 0 1-2.718-1.08c-5.697-2.346-10.812-5.063-15.11-9.69-2.353-2.535-4.235-5.493-6.675-7.942-.059.081-.538-.176-.765-.373-.726-.084-1.71-.234-1.84-.235a48.128 49.32 0 0 0-2.954.062 95.464 95.464 0 0 0-4.21.308c-5.464 8.182-12.369 19.348-15.417 20.826-4.718 2.286-48.225 14.04-51.427 13.346-3.201-.694-20.004.694-24.219.534-4.215-.16-11.85-2.075-22.902-7.274-11.051-5.199-17.102-5.234-30.415-9.574-13.312-4.34-22.243-5.993-30.035.685-7.792 6.678-29.194-7.421-35.864-9.43-6.67-2.009-19.438-13.575-28.146-8.179-8.707 5.396-15.953 7.964-26.832 17.609C30.294 271.34 8.707 289.97 8.707 289.97h367.521l-4.218-7.552a30.258 31.007 0 0 1-21.054-10.69z" class="a"/>
      <path style="fill:#e0e0e0" id="path252" d="M0 179.528s10.946-19.663 40.611-36.688c0 0 24.138-2.058 51.392 9.823 0 0 5.525 9.179-.753 12.8-6.278 3.621-11.493-3.657-11.493-3.657s-1.158 11.085-9.351 11.406c-8.193.321-10.6-7.749-10.6-7.749s-.8 10.173-10.583 12.744c-8.49 2.233-13.764-4.995-13.764-4.995s-1.689 8.361-9.3 10.772c-6.114 1.939-10.3-3.322-10.3-3.322s-1.755 9.074-8.248 9.074C2.041 189.732 0 179.528 0 179.528Z" class="d"/>
    </g>
  </g>
  <ellipse class="a" cx="172.803" cy="279.374" rx="160.166" ry="10.626" id="ellipse256" style="fill:#f5f5f5;stroke-width:.93799716"/>
  <path class="e" d="M281.469 237.689s4.252-5.386 8.116-6.892c3.865-1.506 4.503-7.226 6.6-7.544 2.096-.317 4.416 4.969 8.088 6.507 3.672 1.538 9.232 7.896 9.232 7.896z" id="path258" style="fill:#407bff;stroke-width:.96917117"/>
  <path class="f" d="M281.469 237.689s4.252-5.386 8.116-6.892c3.865-1.506 4.503-7.226 6.6-7.544 2.096-.317 4.416 4.969 8.088 6.507 3.672 1.538 9.232 7.896 9.232 7.896z" id="path260" style="opacity:.8;isolation:isolate;fill:#fff;stroke-width:.96917117"/>
  <path class="e" d="M312.375 276.122h-30.917l-3.908-43.078h38.732z" id="path262" style="fill:#407bff;stroke-width:1.02087581"/>
  <path class="e" d="M275.681 235.648h42.473v4.081h-42.473z" id="path264" style="fill:#407bff;stroke-width:.96917117"/>
  <path class="g" d="M275.681 235.648h42.473v4.081h-42.473z" id="path266" style="opacity:.2;isolation:isolate;fill:#fff;stroke-width:.96917117"/>
  <path class="h" d="M295.086 234c2.82 4.241 14.86 21.748 22.329 23.023l.923-2.122s-6.691.769-21.459-21.972a1.061 1.02 0 0 0-1.398-.364 1.051 1.01 0 0 0-.395 1.435Z" id="path268" style="fill:#263238;stroke-width:1.02087581"/>
  <g id="g274" transform="matrix(1.04167 0 0 1.0005 -52.083 -42.167)">
    <path class="e" d="M291.062 262.448a2.392 2.392 0 0 1 3.015 1.624l5.071 17.719 6.591-2.638s3.968 14.774-3.525 17.106c-7.328 2.281-12.987-11.355-12.987-11.355l6.7-1.853-6.395-17.5a2.393 2.393 0 0 1 1.53-3.103z" id="path270" style="fill:#407bff"/>
    <path d="M363.941 388.328c-7.325 2.279-12.981-11.358-12.981-11.358l6.7-1.848s1.154 1.97 2.448 1.482.769-2.748.769-2.748l6.594-2.636s3.964 14.772-3.53 17.108z" transform="translate(-61.728 -92.065)" style="opacity:.4;isolation:isolate;fill:#fff" id="path272"/>
  </g>
  <g id="g280" transform="matrix(1.04167 0 0 1.0005 -52.083 -42.167)">
    <path class="e" d="M358.364 321.766c-3.688-1.829-7.453-3.557-8.659-3.636-2.6-.172-4.082-1.326-5.937-3.532-1.855-2.206-2.6-4.754-5.936-8.3-3.336-3.546.371-4.966-6.679-5.88-7.05-.914-4.329-.333-8.658-3.454s-3.457-3.12-8.531-5.346c-5.074-2.226-2.107-3.077-8.044-3.58-4.1-.346-10.586 1.814-13.948 4.214-1.492 1.065-2.257 2.832-3.727 3.767-1.656 1.053-4.238-.9-3.967 2.63a9.046 9.046 0 0 1 .122 2.765c-.478 2.005-8.742 2-10.839 2.63a2 2 0 0 0-1.261.766c-.477.854.241 2.365-.687 2.678-.29.1-.612-.014-.914.043-1.119.215-.824 2.221-1.867 2.683-1 .441-2.259-.476-3.423-.039-.9.336-1.192 1.542-1.971 2.017-1.356.828-2.77 1.439-4.108 2.316-2.329 1.526-4.344 3.394-6.841 4.738l-6.679 1.825-1.995.7z" id="path276" style="fill:#407bff"/>
    <path class="f" d="M358.364 321.766c-3.688-1.829-7.453-3.557-8.659-3.636-2.6-.172-4.082-1.326-5.937-3.532-1.855-2.206-2.6-4.754-5.936-8.3-3.336-3.546.371-4.966-6.679-5.88-7.05-.914-4.329-.333-8.658-3.454s-3.457-3.12-8.531-5.346c-5.074-2.226-2.107-3.077-8.044-3.58-4.1-.346-10.586 1.814-13.948 4.214-1.492 1.065-2.257 2.832-3.727 3.767-1.656 1.053-4.238-.9-3.967 2.63a9.046 9.046 0 0 1 .122 2.765c-.478 2.005-8.742 2-10.839 2.63a2 2 0 0 0-1.261.766c-.477.854.241 2.365-.687 2.678-.29.1-.612-.014-.914.043-1.119.215-.824 2.221-1.867 2.683-1 .441-2.259-.476-3.423-.039-.9.336-1.192 1.542-1.971 2.017-1.356.828-2.77 1.439-4.108 2.316-2.329 1.526-4.344 3.394-6.841 4.738l-6.679 1.825-1.995.7z" id="path278" style="opacity:.8;isolation:isolate;fill:#fff"/>
  </g>
  <g id="g292" transform="matrix(1.04167 0 0 1.0005 -52.083 -42.167)">
    <path class="e" d="M279.655 304.696a1.522 1.522 0 0 1-.009.206v.009a16.9 16.9 0 0 1-2.664 8.957c-.141.216-.281.431-.441.647a17.083 17.083 0 0 1-3.527 3.686 11.146 11.146 0 0 1-.957.685h-.009a1.64 1.64 0 0 1-.234.15c-.1.075-.206.131-.31.2a5.359 5.359 0 0 1-.5.3c-.263.15-.535.3-.807.431h-.009a17.017 17.017 0 0 1-19.95-3.489 16.585 16.585 0 0 1-2.861-4 16.963 16.963 0 0 1-1.876-7.775v-.056c0-.478.019-.957.066-1.426a16.787 16.787 0 0 1 1.81-6.3 15.379 15.379 0 0 1 .825-1.435 17.385 17.385 0 0 1 3.6-4.033 14.712 14.712 0 0 1 1.4-1.013 6.241 6.241 0 0 1 .525-.338 16.7 16.7 0 0 1 4.314-1.867c.131-.037.263-.075.394-.1a17.188 17.188 0 0 1 4.146-.507q.661 0 1.294.056c.113 0 .216.009.328.019h.009a16.807 16.807 0 0 1 5.478 1.482c.066.028.141.066.216.1a17.032 17.032 0 0 1 9.6 13.159v.028a15.934 15.934 0 0 1 .149 2.224z" id="path282" style="fill:#407bff"/>
    <path class="j" d="M279.656 304.696a17.034 17.034 0 0 1-9.454 15.27c-.009.009-.009 0-.009 0a3.581 3.581 0 0 1-.938-1.154c3.151-9.192 0-14.116 0-14.116l.009-.094.225-1.473.047-.272c.488-2.729 1.716-7.841 4.38-10.936a17.045 17.045 0 0 1 5.74 12.775zm-30.165-2.954s-2.992 2.992-2.11 10.73a17.074 17.074 0 0 1 4.427-21.028 20.559 20.559 0 0 0-2.317 10.298z" id="path284" style="opacity:.6;isolation:isolate;fill:#fff"/>
    <path class="g" d="M273.915 291.921c-3.752 4.352-4.662 12.775-4.662 12.775-10.3 2.523-19.762-2.954-19.762-2.954a20.659 20.659 0 0 1 2.317-10.3 17.075 17.075 0 0 1 22.107.478zm-3.723 28.044a17.017 17.017 0 0 1-19.95-3.489c3.2 1.9 9.736 4.568 19.012 2.336a3.58 3.58 0 0 0 .938 1.153z" id="path286" style="opacity:.2;isolation:isolate;fill:#fff"/>
    <g class="k" id="g290" style="opacity:.2;isolation:isolate">
      <path d="M269.91 289.272a20.065 20.065 0 0 0-1.229 1.951 30.111 30.111 0 0 0-1.791 4.014c-.525 1.379-.929 2.8-1.313 4.211a66.894 66.894 0 0 0-.966 4.324 30.273 30.273 0 0 1 .619-4.4 36.108 36.108 0 0 1 1.219-4.3 26.451 26.451 0 0 1 1.913-4.033 20.492 20.492 0 0 1 1.332-1.876c.066.038.141.076.216.109zm-5.703-1.581c-.234.422-.45.853-.657 1.285a29.321 29.321 0 0 0-1.7 4.511c-.5 1.538-.872 3.114-1.229 4.69a90.249 90.249 0 0 0-.929 4.765 40.082 40.082 0 0 1 .582-4.84 41.054 41.054 0 0 1 1.126-4.746 26.5 26.5 0 0 1 1.829-4.549c.206-.385.422-.769.647-1.135.116-.001.219.009.331.019zm-5.768.431c-.094.253-.2.507-.291.76a33.318 33.318 0 0 0-1.266 4.268c-.366 1.444-.647 2.908-.919 4.38s-.5 2.945-.713 4.427a37.841 37.841 0 0 1 .366-4.483 44.286 44.286 0 0 1 .816-4.427 28.044 28.044 0 0 1 1.379-4.305c.075-.169.15-.347.234-.516.131-.038.263-.076.394-.104zm-4.709 1.97c-.319 1.051-.619 2.1-.835 3.17-.272 1.191-.469 2.4-.657 3.611a58.303 58.303 0 0 0-.431 3.658 25.594 25.594 0 0 1 .075-3.7 34.591 34.591 0 0 1 .553-3.667 27.572 27.572 0 0 1 .769-2.739c.17-.114.346-.23.526-.333zm20.325 20.297a16.711 16.711 0 0 1-.685 5.224 17.66 17.66 0 0 1-.91 2.467c-.122.272-.263.544-.4.807h-.009a1.642 1.642 0 0 1-.234.15 19.731 19.731 0 0 0 1.21-3.517 17.493 17.493 0 0 0 .563-5.121 18.727 18.727 0 0 0-.788-5.093 20.878 20.878 0 0 0-2.063-4.774 16.405 16.405 0 0 1 2.4 4.662 17.492 17.492 0 0 1 .916 5.195zm3.368-.479-.047 1.416-.2 1.407a9.264 9.264 0 0 1-.2 1.135c-.141.216-.281.431-.441.647a12.141 12.141 0 0 0 .281-1.829l.141-1.388.028-1.388a9.944 9.944 0 0 0-.037-1.4c-.047-.46-.047-.919-.131-1.379a20.508 20.508 0 0 0-1.373-5.372 19.059 19.059 0 0 0-2.758-4.84 15.947 15.947 0 0 1 3.086 4.7 19.7 19.7 0 0 1 1.519 5.459c.075.469.066.938.1 1.416a10.2 10.2 0 0 1 .032 1.416zm2.232-5.214a1.522 1.522 0 0 1-.009.206c-.019-.1-.038-.216-.056-.319a24.906 24.906 0 0 0-1.885-5.637 20.336 20.336 0 0 0-3.245-5 17.436 17.436 0 0 1 3.564 4.84 23.229 23.229 0 0 1 1.482 3.649v.028a15.934 15.934 0 0 1 .149 2.233zm-30.999-5.656a13.983 13.983 0 0 0-1.923 2.776 18.367 18.367 0 0 0-1.229 2.823c0-.478.019-.957.066-1.426a14.165 14.165 0 0 1 .854-1.576 9.9 9.9 0 0 1 2.232-2.597zm.807-4.54c-.713.807-1.407 1.6-2.082 2.411a15.372 15.372 0 0 1 .825-1.435 14.047 14.047 0 0 1 1.257-.976zm-.001 10.86q2.337.9 4.732 1.592a42.5 42.5 0 0 0 4.838 1.153 22.023 22.023 0 0 0 9.85-.122 14.864 14.864 0 0 1-4.914.984 25.853 25.853 0 0 1-5.019-.4 35.916 35.916 0 0 1-4.863-1.272 32.738 32.738 0 0 1-4.624-1.935zm0 4.078a40.417 40.417 0 0 0 4.807 1.577 36.387 36.387 0 0 0 4.949.95 28.662 28.662 0 0 0 5.025.237l1.26-.059 1.253-.151c.845-.053 1.655-.3 2.5-.42a20.866 20.866 0 0 1-4.99.99 25.791 25.791 0 0 1-5.1-.133 31.706 31.706 0 0 1-4.989-1.069 26.086 26.086 0 0 1-4.715-1.922zm.403 3.525a30.006 30.006 0 0 0 4.573 1.708 28.048 28.048 0 0 0 4.764.959c.8.128 1.612.15 2.421.21.809-.009 1.621.022 2.429-.046a29.116 29.116 0 0 0 4.829-.7 20.434 20.434 0 0 1-4.8 1.058 22.03 22.03 0 0 1-4.934-.058 25.183 25.183 0 0 1-4.813-1.081 20.972 20.972 0 0 1-4.469-2.05zm.711 2.658a30.765 30.765 0 0 0 4.308 1.607 27.234 27.234 0 0 0 4.479.923 21.684 21.684 0 0 0 4.56.146l1.142-.089 1.132-.184c.765-.081 1.49-.342 2.251-.486a17.12 17.12 0 0 1-4.493 1.118 19.836 19.836 0 0 1-4.651-.04 24.123 24.123 0 0 1-4.529-1.046 20.489 20.489 0 0 1-4.199-1.949z" id="path288"/>
    </g>
  </g>
  <g id="g310" transform="matrix(1.04167 0 0 1.0005 0 -42.167)">
    <path class="h" d="M66.232 277.856s3.34-5.009 9.276-5.38c5.936-.371 10.947 7.2 10.947 7.2h-1.884s-4.795-5.159-8.228-5.159-6.771 4.267-6.771 4.267zm-50.377 39.603c2.059-3.425 25.063-1.2 30.259-3.242l2.783 4.826s-3.965 2.2-10.554 1.424c-6.589-.776-16.533-.987-19.131 1.3z" id="path294" style="fill:#263238"/>
    <path d="M60.08 411.844c2.059-3.425 25.063-1.2 30.259-3.242l2.783 4.826s-3.965 2.2-10.554 1.424c-6.589-.776-16.533-.987-19.131 1.3z" transform="translate(-44.225 -94.385)" style="opacity:.3;isolation:isolate" id="path296"/>
    <path class="h" d="M112.762 307.021a37.84 37.84 0 0 1-.628 2.392c-1.848 6.387-4.765 11.555-6.866 12.353H45.625a5.373 5.373 0 0 1-4.247-2.081c-.009-.019-.028-.037-.047-.066a4.713 4.713 0 0 1-.553-.91c-4.118-8.6-8.273-25.8-2.429-33.644a13.033 13.033 0 0 1 2.1-2.214 2.049 2.049 0 0 1 .169-.131 17.57 17.57 0 0 1 4.071-2.486c.009 0 .009-.009.019-.009s.019-.009.028-.009c4.108-1.857 9.154-2.711 14.107-3.076a72.939 72.939 0 0 1 4.258-.206c3.658-.1 7.072-.009 9.792.066 9.586.244 17.127 3.1 22.267 2.6a15.425 15.425 0 0 1 5.665.45 15.982 15.982 0 0 1 1.557.525 25.14 25.14 0 0 1 6.453 3.967c5.794 4.649 5.878 14.206 3.927 22.479z" id="path298" style="fill:#263238"/>
    <path class="m" d="M112.762 307.021a37.84 37.84 0 0 1-.628 2.392c-1.848 6.387-4.765 11.555-6.866 12.353H45.625a5.373 5.373 0 0 1-4.247-2.081c-.009-.019-.028-.037-.047-.066a4.713 4.713 0 0 1-.553-.91c-4.118-8.6-8.273-25.8-2.429-33.644a13.033 13.033 0 0 1 2.1-2.214 2.049 2.049 0 0 1 .169-.131 17.57 17.57 0 0 1 4.071-2.486c.009 0 .009-.009.019-.009s.019-.009.028-.009c4.108-1.857 9.154-2.711 14.107-3.076a72.939 72.939 0 0 1 4.258-.206c3.658-.1 7.072-.009 9.792.066 9.586.244 17.127 3.1 22.267 2.6a15.425 15.425 0 0 1 5.665.45 15.982 15.982 0 0 1 1.557.525 25.14 25.14 0 0 1 6.453 3.967c5.794 4.649 5.878 14.206 3.927 22.479z" id="path300" style="opacity:.1;isolation:isolate;fill:#fff"/>
    <path class="n" d="M103.627 306.43c-4.268 0-12.8 2.035-25.418-.741a40.1 40.1 0 0 0-17.908-.136c-.135-1.9-.293-3.965-.457-6.233-1.116-15.241-9.811-21.638-15.11-19.106-.009 0-.019.009-.028.009-.009 0-.009.009-.019.009a23.462 23.462 0 0 0-4.071 2.486 2.05 2.05 0 0 0-.169.131 13.034 13.034 0 0 0-2.1 2.214c-5.844 7.837-1.689 25.043 2.431 33.644a4.713 4.713 0 0 0 .553.91c.019.028.038.047.047.066a5.4 5.4 0 0 0 4.052 1.829h10.7c4.36 0 4.877-3.993 4.391-12.578a59.374 59.374 0 0 0 2.662-1.632c2.654-1.726 12.981-.872 17.436.8 4.455 1.672 16.142 2.411 21.8 1.491a37.779 37.779 0 0 1 9.717-.178c.234-.779.441-1.576.628-2.392-1.953-.209-6.014-.593-9.137-.593z" id="path302" style="opacity:.2;isolation:isolate"/>
    <path class="n" d="M64.853 284.904c2.6 9.464 4.38 12.8 5.065 13.731.685.931 19.575 3.17 23.12 3.161a68.641 68.641 0 0 0 12.231-1.2c2.41-.61 3.189-12.747-2.889-20.025a15.988 15.988 0 0 0-1.557-.525c3.311 7.428 3.386 16.526 2.992 17.793-.563 1.8-6.125 1.538-8.723 1.482-2.598-.056-18.74-1.06-20.409-1.716a8.563 8.563 0 0 1-3.892-3.236c-1.3-1.67-1.482-7.419-3.836-12.381a19.47 19.47 0 0 0-3.855-5.055c-1.4.028-2.823.094-4.258.206a12.371 12.371 0 0 1 6.011 7.765z" id="path304" style="opacity:.2;isolation:isolate"/>
    <path class="h" d="m46.114 293.622-5.2 1.3s-3.689 10.575-1.484 15.028c2.205 4.453-15.045 10.588-23.58 7.507l3.357 4.307s20.409-1.286 24.3-9.055c3.891-7.769-1.67-8.963-2.04-11.148-.37-2.185 4.647-7.939 4.647-7.939z" id="path306" style="fill:#263238"/>
    <path class="m" d="m46.114 293.622-5.2 1.3s-3.689 10.575-1.484 15.028c2.205 4.453-15.045 10.588-23.58 7.507l3.357 4.307s20.409-1.286 24.3-9.055c3.891-7.769-1.67-8.963-2.04-11.148-.37-2.185 4.647-7.939 4.647-7.939z" id="path308" style="opacity:.1;isolation:isolate;fill:#fff"/>
  </g>
  <g id="g388" transform="matrix(1 0 0 .91479 0 -14.583)">
    <path class="o" d="M95.836 99.637S74.93 89.51 70.603 86.887c-4.326-2.625-27.479-22.29-28.778-22.851 0 0 .866-2.248-1.081-3.56-1.947-1.31-9.521-5.619-10.602-5.619-1.082 0-3.896 9.178-3.462 11.426.435 2.248 11.035 2.81 11.035 2.81s22.07 22.245 25.532 25.358c3.461 3.112 27.047 16.411 27.047 16.411z" id="path312" style="fill:#e4897b;stroke-width:.96917117"/>
    <path class="e" d="M104.418 101.491s4.583 8.015-6.546 20.73l-24.53-15.612 9.791-15.351Z" id="path314" style="fill:#407bff;stroke-width:.96917117"/>
    <path class="j" d="m97.872 122.222-11.588-7.375-1.514-.964-6.537-4.153-4.895-3.12 3.605-5.642 2.041-3.205 4.152-6.504 4.007 1.927 3.458 1.658 13.815 6.647a10.99 9.513 0 0 1 .833 2.918c.439 3.41-.226 9.634-7.377 17.813z" id="path316" style="opacity:.6;isolation:isolate;fill:#fff;stroke-width:.96917117"/>
    <path class="n" d="m97.872 122.222-11.588-7.375c3.976-7.124 14.265-9.633 18.964-10.437.44 3.409-.224 9.633-7.376 17.812z" id="path318" style="opacity:.2;isolation:isolate;stroke-width:.96917117"/>
    <g class="p" id="g322" transform="matrix(1.04167 0 0 .90172 0 31.617)" style="opacity:.2">
      <path class="q" d="m86.978 70.118-3.32 1.932v-3.77zm-7.222 4.399-4.164 5.843-1.726-3.452 1.96-3.555zm3.077 8.789-1.454 7.926-6.275-4.605zm2.879-4.518 2.319 5.934 4.814-6.542z" id="path320" style="fill:#fff"/>
    </g>
    <path class="o" d="M150.018 97.7s20.906-10.128 25.234-12.75c4.328-2.622 27.48-22.289 28.777-22.851 0 0-.865-2.247 1.082-3.558 1.948-1.312 9.52-5.62 10.603-5.62 1.082 0 3.894 9.178 3.461 11.426-.433 2.248-11.035 2.81-11.035 2.81s-22.07 22.245-25.533 25.358c-3.462 3.112-27.047 16.411-27.047 16.411zm-24.986 107.177s-.449 6.402-1.162 14.928a1018.583 1018.583 0 0 1-1.613 17.372c-.82 7.967-1.749 15.562-2.677 20.281-.85 4.34-12.134 58.222-12.134 58.222h-7.563c2.385-50.247 6.077-69.733 6.214-72.66.049-.955.087-2.282.136-3.864.147-5.734.274-14.788.352-21.38.059-4.754.088-8.213.088-8.213zm29.185 40.656c-.264 4.39-3.283 69.927-3.283 69.927h-8.315c-4.25-52.2-2.638-70.325-3.4-73.941 0-.017-.01-.026-.01-.043-1.298-6.157-2.52-14.247-3.36-20.256a667.111 577.486 0 0 1-1.094-8.306l16.95-6.342s1.027 7.574 1.799 16.728c.38 4.567.713 9.532.81 14.15.069 2.888.049 5.647-.097 8.083z" id="path324" style="fill:#e4897b;stroke-width:.96917117"/>
    <path class="n" d="m106.586 217.775 17.284 2.03a1018.547 1018.547 0 0 1-1.613 17.371l-16.023 1.98c.147-5.735.274-14.793.352-21.381zm47.728 19.672-15.105 4.027c-1.299-6.157-2.52-14.248-3.36-20.257l17.654 2.08c.38 4.568.713 9.533.81 14.15z" id="path326" style="opacity:.2;isolation:isolate;stroke-width:.96917117"/>
    <path class="e" d="M109.236 313.669h-9.973a.719.622 0 0 0-.7.488l-1.62 6.329a1.212 1.05 0 0 0 1.202 1.262c3.229-.045 5.578-.217 9.629-.217 2.5 0 10.027.226 13.474.226 3.447 0 3.896-2.947 2.485-3.219-6.329-1.193-11.091-2.847-13.118-4.418a1.98 1.713 0 0 0-1.379-.451zm42.297-.225h-9.974a.72.623 0 0 0-.7.487l-1.618 6.33a1.211 1.049 0 0 0 .937 1.243 1.232 1.067 0 0 0 .267.022c3.229-.046 5.578-.217 9.63-.217 2.5 0 10.026.226 13.473.226 3.447 0 3.896-2.948 2.485-3.219-6.329-1.193-11.091-2.848-13.118-4.418a1.98 1.713 0 0 0-1.382-.455z" id="path328" style="fill:#407bff;stroke-width:.96917117"/>
    <path class="h" d="M125.711 233.484c.08-.577.16-1.182.24-1.854 1.014-8.662 2.047-19.057 2.967-29.074 3.376 7.855 4.831 18.892 6.586 30.93h20.521a601.972 521.098 0 0 0-8.51-67.298h-43.571c-.053 3.872-.551 41.442-1.667 67.297z" id="path330" style="fill:#263238;stroke-width:.96917117"/>
    <path class="g" d="M125.711 233.484c.08-.577.16-1.182.24-1.854 1.014-8.662 2.047-19.057 2.967-29.074 3.376 7.855 4.831 18.892 6.586 30.93h20.521a601.972 521.098 0 0 0-8.51-67.298h-43.571c-.053 3.872-.551 41.442-1.667 67.297z" id="path332" style="opacity:.2;isolation:isolate;fill:#fff;stroke-width:.96917117"/>
    <path class="o" d="M131.695 89.044a11.718 10.143 0 0 1-.354 1.005 11.39 9.86 0 0 1-4.063 4.69 11.52 9.973 0 0 1-1.486.795A10.29 8.907 0 0 1 113.5 93.84c-4.115-3.597-4.005-7.748-4.468-14.778a11.135 9.64 0 0 1 15.366-9.614c7.966 2.808 9.058 13.268 7.297 19.595z" id="path334" style="fill:#e4897b;stroke-width:.96917117"/>
    <path class="n" d="M127.28 94.736a11.519 9.971 0 0 1-1.487.795 10.35 8.96 0 0 1-8.896.34 12.142 10.51 0 0 1 1.45-2.385 16.033 13.88 0 0 1 8.932 1.25z" id="path336" style="opacity:.2;isolation:isolate;stroke-width:.96917117"/>
    <path class="o" d="M110.936 103.853c4 3.146 13.8 1.984 13.8 1.984s6.117-1.45 4.833-3.105c-3.603-.515-5.348-1.97-6.069-3.833a10.46 9.055 0 0 1-.366-3.563 21.514 18.623 0 0 1 .303-1.989l-12.115-7.764c1.588 5.125 3.53 14.554-.386 18.27z" id="path338" style="fill:#e4897b;stroke-width:.96917117"/>
    <path class="h" d="m127.278 82.644 1.752.574-.876-3.1s2.568-3.337 0-6.319c0 0 7.076-1.86 3.08-5.093-1.488-1.204-3.334 0-8.212-1.843-2.65-1-10.938-1.078-11.346 1.843 0 0-5.967-.034-6.61 8.79a20.331 17.6 0 0 0 6.32 13.902s7.204 1.478 10.703-1.026c3.499-2.504 5.19-7.728 5.19-7.728z" id="path340" style="fill:#263238;stroke-width:.96917117"/>
    <path class="o" d="M122.664 83.148a5.263 4.555 0 0 0 2.702 3.123c1.654.607 2.74-1.41 2.5-3.523-.227-1.873-1.347-4.508-3.117-4.161-1.77.347-2.661 2.67-2.085 4.56z" id="path342" style="fill:#e4897b;stroke-width:.96917117"/>
    <path class="n" d="M128.917 202.517c-.92 10.019-1.953 20.433-2.967 29.095-1.483-12.503-3.3-21.418-3.3-21.418s-1.703-1.211-6.382-7.677c-4.68-6.465 0-18.534 0-18.534-.146 11.208 12.649 18.534 12.649 18.534z" id="path344" style="opacity:.2;isolation:isolate;stroke-width:.96917117"/>
    <path class="e" d="m157.504 232.015-.902 2.938h-21.848v-2.712zm-30.728.408-.653 2.712h-24.74l-1.495-2.712z" id="path346" style="fill:#407bff;stroke-width:.96917117"/>
    <g id="g352" transform="matrix(1.04167 0 0 .90172 0 31.617)">
      <path class="e" d="M124.626 77.848s-3.411-5.4-12.017-5.783-9.253 5.538-9.253 5.538z" id="path348" style="fill:#407bff"/>
      <path d="M174.641 156.208s-3.411-5.4-12.017-5.783-9.253 5.538-9.253 5.538z" transform="translate(-50.015 -78.36)" style="opacity:.5;isolation:isolate;fill:#fff" id="path350"/>
    </g>
    <path class="e" d="M99.685 89.527a442.529 505.594 0 0 1-.9 100.283l50.425-3.514c-.57-58.797-7.461-95.822-7.461-95.822s-13.007 3.115-23.575 2.665a75.846 86.655 0 0 1-18.49-3.612Z" id="path354" style="fill:#407bff;stroke-width:1.06943619"/>
    <g id="g366" transform="matrix(1.0079 0 0 1.11567 4.837 7.994)">
      <path class="e" d="M135.783 75.344s6.73 15.735 7.458 31.667c.728 15.932-27.357 37.772-27.357 37.772S94.247 129.89 77.55 131.239c-16.697 1.349-21.892 7.288-21.892 7.288s12.988-27.768 35.593-37.45c0 0-4.692-15.992 2.492-26.562-.002 0 15.624 5.082 42.04.829z" id="path356" style="fill:#407bff"/>
      <path class="j" d="M143.24 107.007a13.016 13.016 0 0 1-.009 1.351 15.827 15.827 0 0 1-.253 2.073 22.448 22.448 0 0 1-1.435 4.727v.009a51.664 51.664 0 0 1-7.766 12.2 95.694 95.694 0 0 1-4.952 5.571 131.84 131.84 0 0 1-12.934 11.846 103.1 103.1 0 0 0-18.036-9.52 70.697 70.697 0 0 0-5.956-2.1h-.009a39.734 39.734 0 0 0-14.332-1.923 54.824 54.824 0 0 0-13.618 2.666 34.677 34.677 0 0 0-2.692 1.069 23 23 0 0 0-4.014 2.242c-.141.094-.272.2-.394.291a8.102 8.102 0 0 0-.61.488 2.414 2.414 0 0 0-.225.2 1.244 1.244 0 0 0-.159.15l-.113.113-.066.066c.019-.047.113-.244.281-.582.075-.141.159-.319.263-.516.263-.525.628-1.229 1.107-2.082.066-.122.131-.244.206-.375q.169-.31.366-.647c.122-.225.253-.46.394-.694a94.4 94.4 0 0 1 1.9-3.18 95.184 95.184 0 0 1 13.6-17.2l.009-.009a65.98 65.98 0 0 1 5.853-5.168 52.292 52.292 0 0 1 11.593-6.988 45.253 45.253 0 0 1-1.482-12.54 32.762 32.762 0 0 1 .328-4.005 23.627 23.627 0 0 1 3.655-10.023 48.629 48.629 0 0 0 7.035 1.491 91.225 91.225 0 0 0 9.408.91 118.636 118.636 0 0 0 18.927-.666q3.208-.352 6.669-.91s.075.178.216.525a110.7 110.7 0 0 1 3.855 11.452c.413 1.491.825 3.086 1.219 4.755.356 1.548.694 3.161.994 4.821v.009a78.462 78.462 0 0 1 1.177 10.103z" id="path358" style="opacity:.6;isolation:isolate;fill:#fff"/>
      <g class="k" id="g362" style="opacity:.2;isolation:isolate">
        <path class="q" d="m136.736 119.791-2.964 7.579a95.694 95.694 0 0 1-4.952 5.571l-6.031-11.293zm-51.023-7.241-11.912.685a65.98 65.98 0 0 1 5.853-5.168zm13.74-30.005-1.276 12.381-8.413-6.387a32.762 32.762 0 0 1 .328-4zm3.903 32.618-3.9-11.886 11.859-2.2zm20.405-11.326v8.9l8.519-3.061zm-21.907 25.783-4.005 5.646a70.697 70.697 0 0 0-5.956-2.1h-.009l-3.02-6.884zm-30.426-8.533 6.122 2.6-6.122 4.174zm-7.487 12.82c-6.1 2.129-8.282 4.624-8.282 4.624a84.535 84.535 0 0 1 4.53-8.085zm50.05-11.521-5.273 5.473 7.973 1.391zm0-34.322 6.2 8.349 4.438-9.462zm28.073 8.831-7.926-5.215 5.712-4.361a104.247 104.247 0 0 1 2.214 9.576zm1.163 11.462a20.607 20.607 0 0 1-1.688 6.8l-3.32-8.169zm-7.232-32.49-5.018 5.149-1.867-4.765q3.208-.352 6.669-.91s.076.181.216.526zm-25.812 1.051-3.686 7.8-5.721-8.713a91.221 91.221 0 0 0 9.407.913z" id="path360" style="fill:#fff"/>
      </g>
      <path class="n" d="M143.236 107.006a13.008 13.008 0 0 1-.009 1.351 15.825 15.825 0 0 1-.253 2.073c-6.547-10.411-5.009-19.828-5.009-19.828l3.1 1.473c.356 1.548.694 3.161.994 4.821v.009a78.455 78.455 0 0 1 1.177 10.101z" id="path364" style="opacity:.2;isolation:isolate"/>
    </g>
    <g id="g376" transform="matrix(1.04167 0 0 .90172 0 31.617)">
      <path class="e" d="M116.634 33.891c11.131-3.834 13.927 10.994 2.87 21.019-11.057 10.025-23.754 11.224-25.2 6.173-1.446-5.051 5.34-21.339 22.33-27.192z" id="path368" style="fill:#407bff"/>
      <path class="e" d="M105.479 33.149c5.712-.023 13.829 5.813 13.829 5.813s1.159 6.184-4.529 11.627c-5.688 5.443-10.813 6.308-14 4.2-3.187-2.108-4.055-10.3-4.055-10.3a6.3 6.3 0 0 1 4.055-4.176s.935-7.149 4.7-7.164z" id="path370" style="fill:#407bff"/>
      <path class="n" d="M114.779 50.591c-5.693 5.44-10.814 6.3-14 4.2a5.08 5.08 0 0 1-1.388-1.463c-2.063-3.1-2.664-8.835-2.664-8.835 5.44 6.528 11.743-.216 12.615-4.793a7.243 7.243 0 0 0-1.454-6.275c3.742.807 7.86 3.208 9.98 4.568.9.572 1.444.966 1.444.966s1.16 6.192-4.533 11.632z" id="path372" style="opacity:.2;isolation:isolate"/>
      <path class="j" d="M114.779 50.594c-5.693 5.44-10.814 6.3-14 4.2a5.08 5.08 0 0 1-1.388-1.463c5.7 1.7 12.493-1.126 16.142-6.2a12.564 12.564 0 0 0 2.335-9.135c.9.572 1.444.966 1.444.966s1.161 6.188-4.533 11.632z" id="path374" style="opacity:.6;isolation:isolate;fill:#fff"/>
    </g>
    <g id="g386" transform="matrix(1.04167 0 0 .90172 0 31.617)">
      <path class="e" d="M135.779 75.343s-4.4 8.888 6.284 22.988l23.549-17.313-9.4-17.024z" id="path378" style="fill:#407bff"/>
      <path class="j" d="m165.614 81.017-6.143 4.511-9.089 6.687-8.319 6.115a50.715 50.715 0 0 1-1.51-2.1 40.624 40.624 0 0 1-2.589-4.352 25.253 25.253 0 0 1-3.086-11.33 12.451 12.451 0 0 1 .9-5.206l5.234-2.908 9.014-5 3.958-2.2 2.232-1.238z" id="path380" style="opacity:.6;isolation:isolate;fill:#fff"/>
      <g class="p" id="g384" style="opacity:.2">
        <path class="q" d="m159.471 85.529-9.089 6.687-4-8.91zm-.844-14.332-8.385 3.32-.216-7.081 3.958-2.2zm-14.614 6.978-9.135 2.373a12.451 12.451 0 0 1 .9-5.206l5.234-2.908zm-1.95 11.378-1.51 6.678a40.62 40.62 0 0 1-2.589-4.352z" id="path382" style="fill:#fff"/>
      </g>
    </g>
  </g>
  <g id="g426" transform="matrix(1.04167 0 0 .89264 -27.999 -6.466)">
    <g transform="translate(175.834 171.439)" id="g424">
      <path transform="rotate(-175.521 12.81 30.788)" style="fill:none;stroke:#263238;stroke-width:3px;stroke-miterlimit:10" d="M0 0h11.756v58.443H0Z" id="path390"/>
      <path class="h" d="m14.467 142.722 1.863.146a3.736 3.736 0 1 1-.583 7.447l-1.863-.146a3.736 3.736 0 1 1 .583-7.447z" id="path392" style="fill:#263238"/>
      <path class="m" d="M10.386 146.08a3.8 3.8 0 1 0 4.089-3.495 3.8 3.8 0 0 0-4.089 3.495z" id="path394" style="opacity:.1;isolation:isolate;fill:#fff"/>
      <path class="h" d="m4.226 141.92 1.863.145a3.736 3.736 0 1 1-.583 7.447l-1.861-.145a3.736 3.736 0 1 1 .583-7.447z" id="path396" style="fill:#263238"/>
      <path class="g" d="M.144 145.278a3.8 3.8 0 1 0 4.089-3.495 3.8 3.8 0 0 0-4.089 3.495z" id="path398" style="opacity:.2;isolation:isolate;fill:#fff"/>
      <rect class="h" width="19.604" height="93.521" rx="2.694" transform="rotate(-175.56 12.591 71.806)" id="rect400" x="0" y="0" style="fill:#263238"/>
      <rect class="g" width="12.345" height="93.521" rx="2.694" transform="rotate(-175.521 12.595 71.807)" id="rect402" x="0" y="0" style="opacity:.2;isolation:isolate;fill:#fff"/>
      <rect class="h" width="15.991" height="4.902" rx="2" transform="rotate(-175.56 15.027 2.486)" id="rect404" x="0" y="0" style="fill:#263238"/>
      <rect class="g" width="15.991" height="4.902" rx="2" transform="rotate(-175.56 15.027 2.486)" id="rect406" x="0" y="0" style="opacity:.2;isolation:isolate;fill:#fff"/>
      <rect class="n" width="4.778" height="4.902" rx="2" transform="rotate(-175.526 9.421 2.266)" id="rect408" x="0" y="0" style="opacity:.2;isolation:isolate"/>
      <path class="e" d="m53.643 60.277-6.243 79.69a5.33 5.33 0 0 1-5.723 4.892l-29.115-2.28a3.744 3.744 0 0 1-3.428-4.023l6.49-82.843a3.736 3.736 0 0 1 4.013-3.44l29.115 2.281a5.331 5.331 0 0 1 4.891 5.723z" id="path410" style="fill:#407bff"/>
      <path class="g" d="m53.643 60.277-6.243 79.69a5.33 5.33 0 0 1-5.723 4.892l-29.115-2.28a3.744 3.744 0 0 1-3.428-4.023l6.49-82.843a3.736 3.736 0 0 1 4.013-3.44l29.115 2.281a5.331 5.331 0 0 1 4.891 5.723z" id="path412" style="opacity:.2;isolation:isolate;fill:#fff"/>
      <path class="n" d="m33.65 53.373-.009.113-1.041-.084a3.745 3.745 0 0 0-4.014 3.442l-6.491 82.857a3.741 3.741 0 0 0 2.561 3.827l-12.09-.947a3.75 3.75 0 0 1-3.433-4.014l6.491-82.848a3.738 3.738 0 0 1 4.014-3.442z" id="path414" style="opacity:.2;isolation:isolate"/>
      <rect class="n" width="2.475" height="83.523" rx="1.088" transform="rotate(4.48 -701.964 436.542)" id="rect416" x="0" y="0" style="opacity:.2;isolation:isolate"/>
      <rect class="n" width="2.475" height="83.523" rx="1.088" transform="rotate(4.48 -710.087 511.343)" id="rect418" x="0" y="0" style="opacity:.2;isolation:isolate"/>
      <rect class="n" width="2.475" height="83.523" rx="1.088" transform="rotate(4.481 -711.36 585.784)" id="rect420" x="0" y="0" style="opacity:.2;isolation:isolate"/>
      <rect class="n" width="2.475" height="83.523" rx="1.088" transform="rotate(4.48 -712.96 660.448)" id="rect422" x="0" y="0" style="opacity:.2;isolation:isolate"/>
    </g>
  </g>
</svg>
